<mxfile>
    <diagram id="W2KR3KAdtz1xbAIMo14C" name="Requiments">
        <mxGraphModel dx="748" dy="543" grid="1" gridSize="10" guides="1" tooltips="1" connect="1" arrows="1" fold="1" page="1" pageScale="1" pageWidth="850" pageHeight="1100" background="#F4F1DE" math="0" shadow="0">
            <root>
                <mxCell id="fO2MsJoYNJFzCqbpkd-Q-0"/>
                <mxCell id="fO2MsJoYNJFzCqbpkd-Q-1" parent="fO2MsJoYNJFzCqbpkd-Q-0"/>
                <mxCell id="AzTnJMd7EtHyY8ARJ4wl-4" value="&lt;span id=&quot;docs-internal-guid-edc3938f-7fff-ac5f-62a6-9c6bac50fd1b&quot;&gt;&lt;p dir=&quot;ltr&quot; style=&quot;line-height: 1.38 ; margin-top: 0pt ; margin-bottom: 0pt&quot;&gt;&lt;span style=&quot;font-size: 13pt ; font-family: &amp;#34;thonburi&amp;#34; ; color: rgb(0 , 0 , 0) ; background-color: transparent ; font-weight: 700 ; vertical-align: baseline&quot;&gt;ออกแบบ&lt;/span&gt;&lt;span style=&quot;font-size: 13pt ; font-family: &amp;#34;arial&amp;#34; ; color: rgb(0 , 0 , 0) ; background-color: transparent ; font-weight: 700 ; vertical-align: baseline&quot;&gt; Database &lt;/span&gt;&lt;span style=&quot;font-size: 13pt ; font-family: &amp;#34;thonburi&amp;#34; ; color: rgb(0 , 0 , 0) ; background-color: transparent ; font-weight: 700 ; vertical-align: baseline&quot;&gt;สำหรับระบบ&lt;/span&gt;&lt;span style=&quot;font-size: 13pt ; font-family: &amp;#34;arial&amp;#34; ; color: rgb(0 , 0 , 0) ; background-color: transparent ; font-weight: 700 ; vertical-align: baseline&quot;&gt; e-commerce เล็กๆ &lt;/span&gt;&lt;span style=&quot;font-size: 13pt ; font-family: &amp;#34;thonburi&amp;#34; ; color: rgb(0 , 0 , 0) ; background-color: transparent ; font-weight: 700 ; vertical-align: baseline&quot;&gt;คล้ายๆ&lt;/span&gt;&lt;span style=&quot;font-size: 13pt ; font-family: &amp;#34;arial&amp;#34; ; color: rgb(0 , 0 , 0) ; background-color: transparent ; font-weight: 700 ; vertical-align: baseline&quot;&gt; Shopee Lazada&lt;/span&gt;&lt;/p&gt;&lt;h3 dir=&quot;ltr&quot; style=&quot;line-height: 1.38 ; margin-top: 16pt ; margin-bottom: 4pt&quot;&gt;&lt;span style=&quot;font-size: 14pt ; font-family: &amp;#34;arial&amp;#34; ; color: rgb(67 , 67 , 67) ; background-color: transparent ; font-weight: 400 ; vertical-align: baseline&quot;&gt;Merchant Web&lt;/span&gt;&lt;/h3&gt;&lt;ul style=&quot;margin-top: 0 ; margin-bottom: 0&quot;&gt;&lt;li dir=&quot;ltr&quot; style=&quot;list-style-type: disc ; font-size: 11pt ; font-family: &amp;#34;thonburi&amp;#34; ; color: rgb(0 , 0 , 0) ; background-color: transparent ; vertical-align: baseline&quot;&gt;&lt;p dir=&quot;ltr&quot; style=&quot;line-height: 1.38 ; margin-top: 12pt ; margin-bottom: 0pt&quot;&gt;&lt;span style=&quot;font-size: 11pt ; background-color: transparent ; vertical-align: baseline&quot;&gt;ร้านค้าจะต้องมาสมัครเพื่อเปิดร้านค้าในระบบ โดย User แรกที่มาสมัครร้านค้าจะเป็น Admin&lt;/span&gt;&lt;/p&gt;&lt;/li&gt;&lt;li dir=&quot;ltr&quot; style=&quot;list-style-type: disc ; font-size: 11pt ; font-family: &amp;#34;thonburi&amp;#34; ; color: rgb(0 , 0 , 0) ; background-color: transparent ; vertical-align: baseline&quot;&gt;&lt;p dir=&quot;ltr&quot; style=&quot;line-height: 1.38 ; margin-top: 0pt ; margin-bottom: 0pt&quot;&gt;&lt;span style=&quot;font-size: 11pt ; background-color: transparent ; vertical-align: baseline&quot;&gt;มี Menu Staff Management เพื่อให้ Admin สามารถเพิ่ม User ในร้านค้าตัวเองได้โดย User ที่เพิ่มมาจะเป็นแค่ Staff ซึ่ง Staff จะไม่สามารถเห็น Menu นี้&lt;/span&gt;&lt;/p&gt;&lt;/li&gt;&lt;li dir=&quot;ltr&quot; style=&quot;list-style-type: disc ; font-size: 11pt ; font-family: &amp;#34;thonburi&amp;#34; ; color: rgb(0 , 0 , 0) ; background-color: transparent ; vertical-align: baseline&quot;&gt;&lt;p dir=&quot;ltr&quot; style=&quot;line-height: 1.38 ; margin-top: 0pt ; margin-bottom: 0pt&quot;&gt;&lt;span style=&quot;font-size: 11pt ; background-color: transparent ; vertical-align: baseline&quot;&gt;Admin และ Staff สามารถเพิ่มสินค้าของร้านตัวเองได้ โดยสามารถที่จะเพิ่มไว้ก่อนแต่ยังไม่ขายก็ได้ โดยในสินค้าจะต้องระบุรายละเอียด เช่น ชื่อ, ราคา, รูป เป็นต้น&lt;/span&gt;&lt;/p&gt;&lt;/li&gt;&lt;li dir=&quot;ltr&quot; style=&quot;list-style-type: disc ; font-size: 11pt ; font-family: &amp;#34;thonburi&amp;#34; ; color: rgb(0 , 0 , 0) ; background-color: transparent ; vertical-align: baseline&quot;&gt;&lt;p dir=&quot;ltr&quot; style=&quot;line-height: 1.38 ; margin-top: 0pt ; margin-bottom: 0pt&quot;&gt;&lt;span style=&quot;font-size: 11pt ; background-color: transparent ; vertical-align: baseline&quot;&gt;ทั้ง Admin และ Staff สามารถดู order ของร้านตัวเองได้ แต่เฉพาะ Staff เท่านั้นที่สามารถ update status ของแต่ละ order ได้ เช่น Paid, Shipping, Success, Cancel&lt;/span&gt;&lt;/p&gt;&lt;/li&gt;&lt;li dir=&quot;ltr&quot; style=&quot;list-style-type: disc ; font-size: 11pt ; font-family: &amp;#34;thonburi&amp;#34; ; color: rgb(0 , 0 , 0) ; background-color: transparent ; vertical-align: baseline&quot;&gt;&lt;p dir=&quot;ltr&quot; style=&quot;line-height: 1.38 ; margin-top: 0pt ; margin-bottom: 12pt&quot;&gt;&lt;span style=&quot;font-size: 11pt ; background-color: transparent ; vertical-align: baseline&quot;&gt;Admin สามารถดูประวัติการทำรายการต่างๆของทั้งร้านค้าได้ เช่น Login ครั้งล่าสุดเมื่อไหร่, มีการ update order status เมื่อไหร่ (Audit Log)&lt;/span&gt;&lt;/p&gt;&lt;/li&gt;&lt;/ul&gt;&lt;h3 dir=&quot;ltr&quot; style=&quot;line-height: 1.38 ; margin-top: 16pt ; margin-bottom: 4pt&quot;&gt;&lt;span style=&quot;font-size: 14pt ; font-family: &amp;#34;arial&amp;#34; ; color: rgb(67 , 67 , 67) ; background-color: transparent ; font-weight: 400 ; vertical-align: baseline&quot;&gt;Customer App&lt;/span&gt;&lt;/h3&gt;&lt;ul style=&quot;margin-top: 0 ; margin-bottom: 0&quot;&gt;&lt;li dir=&quot;ltr&quot; style=&quot;list-style-type: disc ; font-size: 11pt ; font-family: &amp;#34;thonburi&amp;#34; ; color: rgb(0 , 0 , 0) ; background-color: transparent ; vertical-align: baseline&quot;&gt;&lt;p dir=&quot;ltr&quot; style=&quot;line-height: 1.38 ; margin-top: 12pt ; margin-bottom: 0pt&quot;&gt;&lt;span style=&quot;font-size: 11pt ; background-color: transparent ; vertical-align: baseline&quot;&gt;ลูกค้าจะต้อง register และ login ก่อนใช้งานทุกครั้ง&amp;nbsp;&lt;/span&gt;&lt;/p&gt;&lt;/li&gt;&lt;li dir=&quot;ltr&quot; style=&quot;list-style-type: disc ; font-size: 11pt ; font-family: &amp;#34;thonburi&amp;#34; ; color: rgb(0 , 0 , 0) ; background-color: transparent ; vertical-align: baseline&quot;&gt;&lt;p dir=&quot;ltr&quot; style=&quot;line-height: 1.38 ; margin-top: 0pt ; margin-bottom: 0pt&quot;&gt;&lt;span style=&quot;font-size: 11pt ; background-color: transparent ; vertical-align: baseline&quot;&gt;ลูกค้าสามารถ search สินค้าด้วย ชื่อร้านค้า, ชื่อสินค้า ได้&lt;/span&gt;&lt;/p&gt;&lt;/li&gt;&lt;li dir=&quot;ltr&quot; style=&quot;list-style-type: disc ; font-size: 11pt ; font-family: &amp;#34;thonburi&amp;#34; ; color: rgb(0 , 0 , 0) ; background-color: transparent ; vertical-align: baseline&quot;&gt;&lt;p dir=&quot;ltr&quot; style=&quot;line-height: 1.38 ; margin-top: 0pt ; margin-bottom: 0pt&quot;&gt;&lt;span style=&quot;font-size: 11pt ; background-color: transparent ; vertical-align: baseline&quot;&gt;ลูกค้าสามารถสั่งซื้อสินค้าจากในระบบได้&lt;/span&gt;&lt;/p&gt;&lt;/li&gt;&lt;li dir=&quot;ltr&quot; style=&quot;list-style-type: disc ; font-size: 11pt ; font-family: &amp;#34;thonburi&amp;#34; ; color: rgb(0 , 0 , 0) ; background-color: transparent ; vertical-align: baseline&quot;&gt;&lt;p dir=&quot;ltr&quot; style=&quot;line-height: 1.38 ; margin-top: 0pt ; margin-bottom: 0pt&quot;&gt;&lt;span style=&quot;font-size: 11pt ; background-color: transparent ; vertical-align: baseline&quot;&gt;ลูกค้าสามารถย้อนกลับมาดู order ของตัวเองได้ รวมถึงราคาของสินค้านั้นๆ ณ วันที่ลูกค้าซื้อได้&lt;/span&gt;&lt;/p&gt;&lt;/li&gt;&lt;li dir=&quot;ltr&quot; style=&quot;list-style-type: disc ; font-size: 11pt ; font-family: &amp;#34;thonburi&amp;#34; ; color: rgb(0 , 0 , 0) ; background-color: transparent ; vertical-align: baseline&quot;&gt;&lt;p dir=&quot;ltr&quot; style=&quot;line-height: 1.38 ; margin-top: 0pt ; margin-bottom: 0pt&quot;&gt;&lt;span style=&quot;font-size: 11pt ; background-color: transparent ; vertical-align: baseline&quot;&gt;ลูกค้าสามารถดู shipping status ของแต่ละ order ได้&lt;/span&gt;&lt;/p&gt;&lt;/li&gt;&lt;li dir=&quot;ltr&quot; style=&quot;list-style-type: disc ; font-size: 11pt ; font-family: &amp;#34;thonburi&amp;#34; ; color: rgb(0 , 0 , 0) ; background-color: transparent ; vertical-align: baseline&quot;&gt;&lt;p dir=&quot;ltr&quot; style=&quot;line-height: 1.38 ; margin-top: 0pt ; margin-bottom: 12pt&quot;&gt;&lt;span style=&quot;font-size: 11pt ; background-color: transparent ; vertical-align: baseline&quot;&gt;ส่ง Email หาลูกค้าเมื่อลูกค้าทำรายการสั่งซื้อสำเร็จ&lt;/span&gt;&lt;/p&gt;&lt;/li&gt;&lt;/ul&gt;&lt;h3 dir=&quot;ltr&quot; style=&quot;line-height: 1.38 ; margin-top: 12pt ; margin-bottom: 12pt&quot;&gt;&lt;span style=&quot;font-size: 14pt ; font-family: &amp;#34;arial&amp;#34; ; color: rgb(67 , 67 , 67) ; background-color: transparent ; font-weight: 400 ; vertical-align: baseline&quot;&gt;Others&lt;/span&gt;&lt;/h3&gt;&lt;ul style=&quot;margin-top: 0 ; margin-bottom: 0&quot;&gt;&lt;li dir=&quot;ltr&quot; style=&quot;list-style-type: disc ; font-size: 11pt ; font-family: &amp;#34;thonburi&amp;#34; ; color: rgb(0 , 0 , 0) ; background-color: transparent ; vertical-align: baseline&quot;&gt;&lt;p dir=&quot;ltr&quot; style=&quot;line-height: 1.38 ; margin-top: 0pt ; margin-bottom: 0pt&quot;&gt;&lt;span style=&quot;font-size: 11pt ; background-color: transparent ; vertical-align: baseline&quot;&gt;Design UI ได้ตามใจชอบ&lt;/span&gt;&lt;/p&gt;&lt;/li&gt;&lt;li dir=&quot;ltr&quot; style=&quot;list-style-type: disc ; font-size: 11pt ; font-family: &amp;#34;thonburi&amp;#34; ; color: rgb(0 , 0 , 0) ; background-color: transparent ; vertical-align: baseline&quot;&gt;&lt;p dir=&quot;ltr&quot; style=&quot;line-height: 1.38 ; margin-top: 0pt ; margin-bottom: 0pt&quot;&gt;&lt;span style=&quot;font-size: 11pt ; background-color: transparent ; vertical-align: baseline&quot;&gt;Design Database พร้อมกับใช้ Library &lt;/span&gt;&lt;a href=&quot;https://www.npmjs.com/package/sequelize&quot;&gt;&lt;span style=&quot;font-size: 11pt ; color: rgb(17 , 85 , 204) ; background-color: rgb(244 , 204 , 204) ; font-weight: 700 ; vertical-align: baseline&quot;&gt;Sequelize&lt;/span&gt;&lt;/a&gt;&lt;span style=&quot;font-size: 11pt ; background-color: transparent ; vertical-align: baseline&quot;&gt; ในการต่อ Database&lt;/span&gt;&lt;/p&gt;&lt;/li&gt;&lt;li dir=&quot;ltr&quot; style=&quot;list-style-type: disc ; font-size: 11pt ; font-family: &amp;#34;thonburi&amp;#34; ; color: rgb(0 , 0 , 0) ; background-color: transparent ; vertical-align: baseline&quot;&gt;&lt;p dir=&quot;ltr&quot; style=&quot;line-height: 1.38 ; margin-top: 0pt ; margin-bottom: 0pt&quot;&gt;&lt;span style=&quot;font-size: 11pt ; background-color: transparent ; vertical-align: baseline&quot;&gt;ใช้ Library &lt;/span&gt;&lt;a href=&quot;https://www.npmjs.com/package/axios&quot;&gt;&lt;span style=&quot;font-size: 11pt ; color: rgb(17 , 85 , 204) ; background-color: rgb(244 , 204 , 204) ; font-weight: 700 ; vertical-align: baseline&quot;&gt;Axios&lt;/span&gt;&lt;/a&gt;&lt;span style=&quot;font-size: 11pt ; background-color: transparent ; vertical-align: baseline&quot;&gt; ในการ Call API&lt;/span&gt;&lt;/p&gt;&lt;/li&gt;&lt;li dir=&quot;ltr&quot; style=&quot;list-style-type: disc ; font-size: 11pt ; font-family: &amp;#34;thonburi&amp;#34; ; color: rgb(0 , 0 , 0) ; background-color: transparent ; vertical-align: baseline&quot;&gt;&lt;p dir=&quot;ltr&quot; style=&quot;line-height: 1.38 ; margin-top: 0pt ; margin-bottom: 0pt&quot;&gt;&lt;span style=&quot;font-size: 11pt ; background-color: transparent ; vertical-align: baseline&quot;&gt;Email Template design ได้เองเลย&lt;/span&gt;&lt;/p&gt;&lt;/li&gt;&lt;li dir=&quot;ltr&quot; style=&quot;list-style-type: disc ; font-size: 11pt ; font-family: &amp;#34;thonburi&amp;#34; ; color: rgb(0 , 0 , 0) ; background-color: transparent ; vertical-align: baseline&quot;&gt;&lt;p dir=&quot;ltr&quot; style=&quot;line-height: 1.38 ; margin-top: 0pt ; margin-bottom: 0pt&quot;&gt;&lt;span style=&quot;font-size: 11pt ; background-color: transparent ; vertical-align: baseline&quot;&gt;ในส่วนของ user ร้านค้าและลูกค้า ให้ทำ Authorize ขึ้นมาเอง (เก็บข้อมูลใน Database) โดยใช้ &lt;/span&gt;&lt;a href=&quot;https://www.npmjs.com/package/jsonwebtoken&quot;&gt;&lt;span style=&quot;font-size: 11pt ; color: rgb(17 , 85 , 204) ; background-color: rgb(244 , 204 , 204) ; font-weight: 700 ; vertical-align: baseline&quot;&gt;JWT&lt;/span&gt;&lt;/a&gt;&lt;span style=&quot;font-size: 11pt ; background-color: transparent ; vertical-align: baseline&quot;&gt; ในหาร generate Token&lt;/span&gt;&lt;/p&gt;&lt;/li&gt;&lt;/ul&gt;&lt;h3 dir=&quot;ltr&quot; style=&quot;line-height: 1.38 ; margin-top: 12pt ; margin-bottom: 12pt&quot;&gt;&lt;span style=&quot;font-size: 14pt ; font-family: &amp;#34;arial&amp;#34; ; color: rgb(67 , 67 , 67) ; background-color: transparent ; font-weight: 400 ; vertical-align: baseline&quot;&gt;&lt;span style=&quot;width: 100px ; display: inline-block ; position: relative&quot;&gt;&lt;/span&gt;&lt;/span&gt;&lt;/h3&gt;&lt;h3 dir=&quot;ltr&quot; style=&quot;line-height: 1.38 ; margin-top: 12pt ; margin-bottom: 12pt&quot;&gt;&lt;span style=&quot;font-size: 14pt ; font-family: &amp;#34;arial&amp;#34; ; color: rgb(67 , 67 , 67) ; background-color: transparent ; font-weight: 400 ; vertical-align: baseline&quot;&gt;Tech Stack&lt;/span&gt;&lt;/h3&gt;&lt;p dir=&quot;ltr&quot; style=&quot;line-height: 1.2 ; margin-top: 12pt ; margin-bottom: 12pt&quot;&gt;&lt;span style=&quot;font-size: 10pt ; font-family: &amp;#34;thonburi&amp;#34; ; color: rgb(0 , 0 , 0) ; background-color: transparent ; vertical-align: baseline&quot;&gt;Web: Next.JS (Typescript or Javascript)&lt;/span&gt;&lt;/p&gt;&lt;p dir=&quot;ltr&quot; style=&quot;line-height: 1.2 ; margin-top: 12pt ; margin-bottom: 12pt&quot;&gt;&lt;span style=&quot;font-size: 10pt ; font-family: &amp;#34;thonburi&amp;#34; ; color: rgb(0 , 0 , 0) ; background-color: transparent ; vertical-align: baseline&quot;&gt;Mobile: React Native (Typescript or Javascript)&lt;/span&gt;&lt;/p&gt;&lt;p dir=&quot;ltr&quot; style=&quot;line-height: 1.2 ; margin-top: 12pt ; margin-bottom: 12pt&quot;&gt;&lt;span style=&quot;font-size: 10pt ; font-family: &amp;#34;thonburi&amp;#34; ; color: rgb(0 , 0 , 0) ; background-color: transparent ; vertical-align: baseline&quot;&gt;API: Express.JS (Typescript or Javascript)&lt;/span&gt;&lt;/p&gt;&lt;p dir=&quot;ltr&quot; style=&quot;line-height: 1.2 ; margin-top: 12pt ; margin-bottom: 12pt&quot;&gt;&lt;span style=&quot;font-size: 10pt ; font-family: &amp;#34;thonburi&amp;#34; ; color: rgb(0 , 0 , 0) ; background-color: transparent ; vertical-align: baseline&quot;&gt;Database: MySQL or MariaDB&lt;/span&gt;&lt;/p&gt;&lt;br&gt;&lt;h3 dir=&quot;ltr&quot; style=&quot;line-height: 1.2 ; margin-top: 12pt ; margin-bottom: 12pt&quot;&gt;&lt;span style=&quot;font-size: 14pt ; font-family: &amp;#34;arial&amp;#34; ; color: rgb(67 , 67 , 67) ; background-color: transparent ; font-weight: 400 ; vertical-align: baseline&quot;&gt;Email SMTP&lt;/span&gt;&lt;/h3&gt;&lt;p dir=&quot;ltr&quot; style=&quot;line-height: 1.2 ; margin-top: 12pt ; margin-bottom: 12pt&quot;&gt;&lt;span style=&quot;font-size: 10pt ; font-family: &amp;#34;thonburi&amp;#34; ; color: rgb(0 , 0 , 0) ; background-color: transparent ; vertical-align: baseline&quot;&gt;host: otterio.digipay.dev&lt;/span&gt;&lt;/p&gt;&lt;p dir=&quot;ltr&quot; style=&quot;line-height: 1.2 ; margin-top: 12pt ; margin-bottom: 12pt&quot;&gt;&lt;span style=&quot;font-size: 10pt ; font-family: &amp;#34;thonburi&amp;#34; ; color: rgb(0 , 0 , 0) ; background-color: transparent ; vertical-align: baseline&quot;&gt;port: 465&lt;/span&gt;&lt;/p&gt;&lt;p dir=&quot;ltr&quot; style=&quot;line-height: 1.2 ; margin-top: 12pt ; margin-bottom: 12pt&quot;&gt;&lt;span style=&quot;font-size: 10pt ; font-family: &amp;#34;thonburi&amp;#34; ; color: rgb(0 , 0 , 0) ; background-color: transparent ; vertical-align: baseline&quot;&gt;username: e_commerce&lt;/span&gt;&lt;/p&gt;&lt;p dir=&quot;ltr&quot; style=&quot;line-height: 1.2 ; margin-top: 12pt ; margin-bottom: 12pt&quot;&gt;&lt;span style=&quot;font-size: 10pt ; font-family: &amp;#34;thonburi&amp;#34; ; color: rgb(0 , 0 , 0) ; background-color: transparent ; vertical-align: baseline&quot;&gt;password: jfuoi89_-@Uodm&lt;/span&gt;&lt;/p&gt;&lt;br&gt;&lt;br&gt;&lt;br&gt;&lt;/span&gt;" style="rounded=0;whiteSpace=wrap;html=1;sketch=0;strokeColor=#666666;fillColor=#f5f5f5;align=left;verticalAlign=top;fontColor=#333333;" vertex="1" parent="fO2MsJoYNJFzCqbpkd-Q-1">
                    <mxGeometry x="30" y="40" width="780" height="1230" as="geometry"/>
                </mxCell>
            </root>
        </mxGraphModel>
    </diagram>
    <diagram id="HrY1Lw7TsEntZkDCh4u-" name="FlowDiagram">
        <mxGraphModel dx="898" dy="652" grid="1" gridSize="10" guides="1" tooltips="1" connect="1" arrows="1" fold="1" page="1" pageScale="1" pageWidth="1100" pageHeight="850" background="#F4F1DE" math="0" shadow="0">
            <root>
                <mxCell id="0"/>
                <mxCell id="1" parent="0"/>
                <mxCell id="7" style="edgeStyle=orthogonalEdgeStyle;curved=0;rounded=1;sketch=0;orthogonalLoop=1;jettySize=auto;html=1;strokeColor=#E07A5F;fillColor=#F2CC8F;fontColor=#393C56;" edge="1" parent="1" source="2" target="4">
                    <mxGeometry relative="1" as="geometry"/>
                </mxCell>
                <mxCell id="2" value="" style="shape=actor;whiteSpace=wrap;html=1;fillColor=#F2CC8F;strokeColor=#E07A5F;fontColor=#393C56;" vertex="1" parent="1">
                    <mxGeometry x="190" y="150" width="40" height="50" as="geometry"/>
                </mxCell>
                <mxCell id="3" value="Admin/Staff" style="text;html=1;align=center;verticalAlign=middle;resizable=0;points=[];autosize=1;fontColor=#393C56;" vertex="1" parent="1">
                    <mxGeometry x="170" y="200" width="80" height="20" as="geometry"/>
                </mxCell>
                <mxCell id="24" style="edgeStyle=orthogonalEdgeStyle;curved=0;rounded=1;sketch=0;orthogonalLoop=1;jettySize=auto;html=1;entryX=0;entryY=0.5;entryDx=0;entryDy=0;entryPerimeter=0;strokeColor=#E07A5F;fillColor=#F2CC8F;fontColor=#393C56;startArrow=classic;startFill=1;" edge="1" parent="1" source="4" target="23">
                    <mxGeometry relative="1" as="geometry"/>
                </mxCell>
                <mxCell id="28" style="edgeStyle=orthogonalEdgeStyle;curved=0;rounded=1;sketch=0;orthogonalLoop=1;jettySize=auto;html=1;entryX=0.571;entryY=0;entryDx=0;entryDy=0;entryPerimeter=0;startArrow=none;startFill=0;endArrow=classic;endFill=1;strokeColor=#E07A5F;fillColor=#F2CC8F;fontColor=#393C56;" edge="1" parent="1" source="4" target="13">
                    <mxGeometry relative="1" as="geometry"/>
                </mxCell>
                <mxCell id="4" value="Merchant-web" style="strokeWidth=1;shadow=0;dashed=0;align=center;html=1;shape=mxgraph.mockup.containers.window;align=left;verticalAlign=top;spacingLeft=8;strokeColor2=#008cff;strokeColor3=#c4c4c4;mainText=;fontSize=17;labelBackgroundColor=none;fillColor=#F2CC8F;strokeColor=#E07A5F;fontColor=#393C56;" vertex="1" parent="1">
                    <mxGeometry x="460" y="240" width="200" height="200" as="geometry"/>
                </mxCell>
                <mxCell id="8" value="WEB" style="rounded=0;whiteSpace=wrap;html=1;sketch=0;strokeColor=#E07A5F;fontColor=#393C56;fillColor=#FFFFFF;" vertex="1" parent="1">
                    <mxGeometry x="475" y="280" width="170" height="50" as="geometry"/>
                </mxCell>
                <mxCell id="9" value="API" style="rounded=0;whiteSpace=wrap;html=1;sketch=0;strokeColor=#E07A5F;fontColor=#393C56;fillColor=#FFFFFF;" vertex="1" parent="1">
                    <mxGeometry x="475" y="340" width="170" height="50" as="geometry"/>
                </mxCell>
                <mxCell id="17" style="edgeStyle=orthogonalEdgeStyle;curved=0;rounded=1;sketch=0;orthogonalLoop=1;jettySize=auto;html=1;entryX=0;entryY=0.5;entryDx=0;entryDy=0;strokeColor=#E07A5F;fillColor=#F2CC8F;fontColor=#393C56;" edge="1" parent="1" source="10" target="15">
                    <mxGeometry relative="1" as="geometry"/>
                </mxCell>
                <mxCell id="10" value="" style="shape=actor;whiteSpace=wrap;html=1;fillColor=#F2CC8F;strokeColor=#E07A5F;fontColor=#393C56;" vertex="1" parent="1">
                    <mxGeometry x="190" y="645" width="40" height="50" as="geometry"/>
                </mxCell>
                <mxCell id="11" value="Customer" style="text;html=1;align=center;verticalAlign=middle;resizable=0;points=[];autosize=1;fontColor=#393C56;" vertex="1" parent="1">
                    <mxGeometry x="175" y="695" width="70" height="20" as="geometry"/>
                </mxCell>
                <mxCell id="12" value="Create Merchant/user" style="text;html=1;align=center;verticalAlign=middle;resizable=0;points=[];autosize=1;fontColor=#393C56;" vertex="1" parent="1">
                    <mxGeometry x="310" y="140" width="130" height="20" as="geometry"/>
                </mxCell>
                <mxCell id="16" value="" style="group" vertex="1" connectable="0" parent="1">
                    <mxGeometry x="520" y="610" width="70" height="120" as="geometry"/>
                </mxCell>
                <mxCell id="13" value="" style="verticalLabelPosition=bottom;verticalAlign=top;html=1;shadow=0;dashed=0;strokeWidth=1;shape=mxgraph.android.phone2;strokeColor=#c0c0c0;rounded=0;sketch=0;fillColor=#FFFFFF;fontColor=#393C56;" vertex="1" parent="16">
                    <mxGeometry width="70" height="120" as="geometry"/>
                </mxCell>
                <mxCell id="15" value="" style="rounded=0;whiteSpace=wrap;html=1;sketch=0;fillColor=#eeeeee;strokeColor=none;" vertex="1" parent="16">
                    <mxGeometry y="12" width="70" height="96" as="geometry"/>
                </mxCell>
                <mxCell id="18" value="Login/Shopping" style="text;html=1;align=center;verticalAlign=middle;resizable=0;points=[];autosize=1;fontColor=#393C56;" vertex="1" parent="1">
                    <mxGeometry x="300" y="640" width="100" height="20" as="geometry"/>
                </mxCell>
                <mxCell id="20" value="Api Login" style="text;html=1;align=center;verticalAlign=middle;resizable=0;points=[];autosize=1;fontColor=#393C56;rotation=-90;" vertex="1" parent="1">
                    <mxGeometry x="490" y="510" width="70" height="20" as="geometry"/>
                </mxCell>
                <mxCell id="22" style="edgeStyle=orthogonalEdgeStyle;curved=0;rounded=1;sketch=0;orthogonalLoop=1;jettySize=auto;html=1;strokeColor=#E07A5F;fillColor=#F2CC8F;fontColor=#393C56;" edge="1" parent="1" source="13">
                    <mxGeometry relative="1" as="geometry">
                        <mxPoint x="540" y="440" as="targetPoint"/>
                        <Array as="points">
                            <mxPoint x="540" y="440"/>
                        </Array>
                    </mxGeometry>
                </mxCell>
                <mxCell id="23" value="Database Mysql" style="strokeWidth=2;html=1;shape=mxgraph.flowchart.database;whiteSpace=wrap;rounded=0;sketch=0;fillColor=#FFFFFF;fontColor=#393C56;strokeColor=#000000;" vertex="1" parent="1">
                    <mxGeometry x="830" y="315" width="110" height="50" as="geometry"/>
                </mxCell>
                <mxCell id="25" value="JWT" style="rounded=0;whiteSpace=wrap;html=1;sketch=0;strokeColor=#E07A5F;fontColor=#393C56;fillColor=#FFFFFF;" vertex="1" parent="1">
                    <mxGeometry x="475" y="390" width="170" height="30" as="geometry"/>
                </mxCell>
                <mxCell id="29" value="Fetch Data" style="text;html=1;align=center;verticalAlign=middle;resizable=0;points=[];autosize=1;fontColor=#393C56;rotation=-90;" vertex="1" parent="1">
                    <mxGeometry x="540" y="510" width="70" height="20" as="geometry"/>
                </mxCell>
            </root>
        </mxGraphModel>
    </diagram>
    <diagram id="EIIpvg2W2H7BcV5-1TkA" name="Wireframe-Merchant-web">
        <mxGraphModel dx="4692" dy="2608" grid="1" gridSize="10" guides="1" tooltips="1" connect="1" arrows="1" fold="1" page="1" pageScale="1" pageWidth="1100" pageHeight="850" background="#F4F1DE" math="0" shadow="0">
            <root>
                <mxCell id="V7ItCuovpPEUFhIJDj6l-0"/>
                <mxCell id="V7ItCuovpPEUFhIJDj6l-1" parent="V7ItCuovpPEUFhIJDj6l-0"/>
                <mxCell id="7RRr_ebmiQOzfgmXOCdE-23" value="6.Cart-MerchantWeb" style="strokeWidth=1;shadow=0;dashed=0;align=center;html=1;shape=mxgraph.mockup.containers.window;align=left;verticalAlign=top;spacingLeft=8;strokeColor2=#008cff;strokeColor3=#c4c4c4;fontColor=#666666;mainText=;fontSize=17;labelBackgroundColor=none;rounded=0;sketch=0;fillColor=#FFFFFF;" vertex="1" parent="V7ItCuovpPEUFhIJDj6l-1">
                    <mxGeometry x="1130" y="1250" width="1000" height="1270" as="geometry"/>
                </mxCell>
                <mxCell id="YofYCnHRwfWKX3bDhyw9-83" value="5.ProductDetail-MerchantWeb" style="strokeWidth=1;shadow=0;dashed=0;align=center;html=1;shape=mxgraph.mockup.containers.window;align=left;verticalAlign=top;spacingLeft=8;strokeColor2=#008cff;strokeColor3=#c4c4c4;fontColor=#666666;mainText=;fontSize=17;labelBackgroundColor=none;rounded=0;sketch=0;fillColor=#FFFFFF;" vertex="1" parent="V7ItCuovpPEUFhIJDj6l-1">
                    <mxGeometry x="40" y="1240" width="1000" height="1270" as="geometry"/>
                </mxCell>
                <mxCell id="r7LRQeCQxJZfCs1Y7XA6-0" value="1.HomeShop-MerchantWeb" style="strokeWidth=1;shadow=0;dashed=0;align=center;html=1;shape=mxgraph.mockup.containers.window;align=left;verticalAlign=top;spacingLeft=8;strokeColor2=#008cff;strokeColor3=#c4c4c4;fontColor=#666666;mainText=;fontSize=17;labelBackgroundColor=none;rounded=0;sketch=0;fillColor=#FFFFFF;" vertex="1" parent="V7ItCuovpPEUFhIJDj6l-1">
                    <mxGeometry x="-1050" y="40" width="1000" height="2010" as="geometry"/>
                </mxCell>
                <mxCell id="r7LRQeCQxJZfCs1Y7XA6-12" value="First slide" style="html=1;shadow=0;dashed=0;strokeColor=none;strokeWidth=1;fillColor=#777777;fontColor=#555555;whiteSpace=wrap;align=center;verticalAlign=middle;fontStyle=0;fontSize=40;rounded=0;sketch=0;" vertex="1" parent="V7ItCuovpPEUFhIJDj6l-1">
                    <mxGeometry x="-1050" y="250" width="1000" height="300" as="geometry"/>
                </mxCell>
                <mxCell id="r7LRQeCQxJZfCs1Y7XA6-13" value="" style="html=1;verticalLabelPosition=bottom;labelBackgroundColor=#ffffff;verticalAlign=top;shadow=0;dashed=0;strokeWidth=4;shape=mxgraph.ios7.misc.more;strokeColor=#a0a0a0;" vertex="1" parent="r7LRQeCQxJZfCs1Y7XA6-12">
                    <mxGeometry x="1" y="0.5" width="7" height="14" relative="1" as="geometry">
                        <mxPoint x="-50" y="-7" as="offset"/>
                    </mxGeometry>
                </mxCell>
                <mxCell id="r7LRQeCQxJZfCs1Y7XA6-14" value="" style="flipH=1;html=1;verticalLabelPosition=bottom;labelBackgroundColor=#ffffff;verticalAlign=top;shadow=0;dashed=0;strokeWidth=4;shape=mxgraph.ios7.misc.more;strokeColor=#a0a0a0;" vertex="1" parent="r7LRQeCQxJZfCs1Y7XA6-12">
                    <mxGeometry y="0.5" width="7" height="14" relative="1" as="geometry">
                        <mxPoint x="43" y="-7" as="offset"/>
                    </mxGeometry>
                </mxCell>
                <mxCell id="r7LRQeCQxJZfCs1Y7XA6-15" value="" style="html=1;shadow=0;strokeColor=none;fillColor=#ffffff;" vertex="1" parent="r7LRQeCQxJZfCs1Y7XA6-12">
                    <mxGeometry x="0.5" y="1" width="30" height="4" relative="1" as="geometry">
                        <mxPoint x="-50" y="-20" as="offset"/>
                    </mxGeometry>
                </mxCell>
                <mxCell id="r7LRQeCQxJZfCs1Y7XA6-16" value="" style="html=1;shadow=0;strokeColor=none;fillColor=#BBBBBB;" vertex="1" parent="r7LRQeCQxJZfCs1Y7XA6-12">
                    <mxGeometry x="0.5" y="1" width="30" height="4" relative="1" as="geometry">
                        <mxPoint x="-15" y="-20" as="offset"/>
                    </mxGeometry>
                </mxCell>
                <mxCell id="r7LRQeCQxJZfCs1Y7XA6-17" value="" style="html=1;shadow=0;strokeColor=none;fillColor=#BBBBBB;" vertex="1" parent="r7LRQeCQxJZfCs1Y7XA6-12">
                    <mxGeometry x="0.5" y="1" width="30" height="4" relative="1" as="geometry">
                        <mxPoint x="20" y="-20" as="offset"/>
                    </mxGeometry>
                </mxCell>
                <mxCell id="gs6bdsBkZQFB3SlLU_oK-0" value="2.Login-MerchantWeb" style="strokeWidth=1;shadow=0;dashed=0;align=center;html=1;shape=mxgraph.mockup.containers.window;align=left;verticalAlign=top;spacingLeft=8;strokeColor2=#008cff;strokeColor3=#c4c4c4;fontColor=#666666;mainText=;fontSize=17;labelBackgroundColor=none;rounded=0;sketch=0;fillColor=#FFFFFF;" vertex="1" parent="V7ItCuovpPEUFhIJDj6l-1">
                    <mxGeometry x="40" y="40" width="1000" height="1140" as="geometry"/>
                </mxCell>
                <mxCell id="jlBztP9HJ9qdyP_1mLeQ-25" value="3.Register-MerchantWeb" style="strokeWidth=1;shadow=0;dashed=0;align=center;html=1;shape=mxgraph.mockup.containers.window;align=left;verticalAlign=top;spacingLeft=8;strokeColor2=#008cff;strokeColor3=#c4c4c4;fontColor=#666666;mainText=;fontSize=17;labelBackgroundColor=none;rounded=0;sketch=0;fillColor=#FFFFFF;" vertex="1" parent="V7ItCuovpPEUFhIJDj6l-1">
                    <mxGeometry x="1130" y="40" width="1000" height="1140" as="geometry"/>
                </mxCell>
                <mxCell id="8CgH0KMzsaKHRVF05yF4-22" value="4.ForgotPassword-MerchantWeb" style="strokeWidth=1;shadow=0;dashed=0;align=center;html=1;shape=mxgraph.mockup.containers.window;align=left;verticalAlign=top;spacingLeft=8;strokeColor2=#008cff;strokeColor3=#c4c4c4;fontColor=#666666;mainText=;fontSize=17;labelBackgroundColor=none;rounded=0;sketch=0;fillColor=#FFFFFF;" vertex="1" parent="V7ItCuovpPEUFhIJDj6l-1">
                    <mxGeometry x="2250" y="40" width="1000" height="1140" as="geometry"/>
                </mxCell>
                <mxCell id="8CgH0KMzsaKHRVF05yF4-36" value="" style="group" vertex="1" connectable="0" parent="V7ItCuovpPEUFhIJDj6l-1">
                    <mxGeometry x="2585" y="190" width="910" height="775" as="geometry"/>
                </mxCell>
                <mxCell id="8CgH0KMzsaKHRVF05yF4-37" value="" style="rounded=0;whiteSpace=wrap;html=1;sketch=0;strokeColor=#E07A5F;fillColor=#FFFFFF;fontColor=#393C56;" vertex="1" parent="8CgH0KMzsaKHRVF05yF4-36">
                    <mxGeometry width="330" height="460" as="geometry"/>
                </mxCell>
                <mxCell id="8CgH0KMzsaKHRVF05yF4-38" value="Forgot Password" style="text;html=1;strokeColor=none;fillColor=none;align=center;verticalAlign=middle;whiteSpace=wrap;rounded=0;sketch=0;fontColor=#393C56;fontSize=18;fontStyle=1" vertex="1" parent="8CgH0KMzsaKHRVF05yF4-36">
                    <mxGeometry x="20" y="20" width="150" height="50" as="geometry"/>
                </mxCell>
                <mxCell id="8CgH0KMzsaKHRVF05yF4-48" value="Send" style="strokeWidth=1;shadow=0;dashed=0;align=center;html=1;shape=mxgraph.mockup.buttons.button;strokeColor=#314354;mainText=;buttonStyle=round;fontSize=17;fontStyle=1;fillColor=#647687;whiteSpace=wrap;rounded=0;sketch=0;fontColor=#ffffff;" vertex="1" parent="8CgH0KMzsaKHRVF05yF4-36">
                    <mxGeometry x="95" y="185" width="150" height="50" as="geometry"/>
                </mxCell>
                <mxCell id="8CgH0KMzsaKHRVF05yF4-40" value="" style="group" vertex="1" connectable="0" parent="8CgH0KMzsaKHRVF05yF4-36">
                    <mxGeometry x="20" y="80" width="300" height="65" as="geometry"/>
                </mxCell>
                <mxCell id="8CgH0KMzsaKHRVF05yF4-41" value="Email :" style="text;html=1;strokeColor=none;fillColor=none;align=left;verticalAlign=middle;whiteSpace=wrap;rounded=0;sketch=0;fontSize=18;fontColor=#393C56;" vertex="1" parent="8CgH0KMzsaKHRVF05yF4-40">
                    <mxGeometry width="120" height="20" as="geometry"/>
                </mxCell>
                <mxCell id="8CgH0KMzsaKHRVF05yF4-42" value="" style="rounded=0;whiteSpace=wrap;html=1;sketch=0;strokeColor=#E07A5F;fillColor=#FFFFFF;fontSize=18;fontColor=#393C56;" vertex="1" parent="8CgH0KMzsaKHRVF05yF4-40">
                    <mxGeometry y="30" width="300" height="35" as="geometry"/>
                </mxCell>
                <mxCell id="8CgH0KMzsaKHRVF05yF4-49" value="Send re-password from email exsample@,ail.com" style="strokeWidth=1;shadow=0;dashed=0;align=center;html=1;shape=mxgraph.mockup.containers.rrect;rSize=0;strokeColor=#666666;fontColor=#666666;fontSize=17;verticalAlign=top;whiteSpace=wrap;fillColor=#ffffff;spacingTop=32;rounded=0;sketch=0;" vertex="1" parent="8CgH0KMzsaKHRVF05yF4-36">
                    <mxGeometry x="10" y="510" width="310" height="130" as="geometry"/>
                </mxCell>
                <mxCell id="8CgH0KMzsaKHRVF05yF4-53" value="OK" style="strokeWidth=1;shadow=0;dashed=0;align=center;html=1;shape=mxgraph.mockup.containers.rrect;rSize=0;fontSize=16;fontColor=#666666;strokeColor=#c4c4c4;whiteSpace=wrap;fillColor=none;" vertex="1" parent="8CgH0KMzsaKHRVF05yF4-49">
                    <mxGeometry x="0.75" y="1" width="90" height="25" relative="1" as="geometry">
                        <mxPoint x="-122.5" y="-33" as="offset"/>
                    </mxGeometry>
                </mxCell>
                <mxCell id="8CgH0KMzsaKHRVF05yF4-50" value="Alert" style="strokeWidth=1;shadow=0;dashed=0;align=center;html=1;shape=mxgraph.mockup.containers.rrect;rSize=0;fontSize=17;fontColor=#666666;strokeColor=#666666;align=left;spacingLeft=8;fillColor=none;resizeWidth=1;" vertex="1" parent="8CgH0KMzsaKHRVF05yF4-49">
                    <mxGeometry width="310" height="30" relative="1" as="geometry"/>
                </mxCell>
                <mxCell id="8CgH0KMzsaKHRVF05yF4-51" value="" style="shape=ellipse;strokeColor=#008cff;resizable=0;fillColor=none;html=1;" vertex="1" parent="8CgH0KMzsaKHRVF05yF4-50">
                    <mxGeometry x="1" y="0.5" width="20" height="20" relative="1" as="geometry">
                        <mxPoint x="-25" y="-10" as="offset"/>
                    </mxGeometry>
                </mxCell>
                <mxCell id="8CgH0KMzsaKHRVF05yF4-55" value="Verify your account email address.&lt;br&gt;exsample@mail.com" style="strokeWidth=1;shadow=0;dashed=0;align=center;html=1;shape=mxgraph.mockup.containers.rrect;rSize=0;strokeColor=#666666;fontColor=#666666;fontSize=17;verticalAlign=top;whiteSpace=wrap;fillColor=#ffffff;spacingTop=32;rounded=0;sketch=0;" vertex="1" parent="8CgH0KMzsaKHRVF05yF4-36">
                    <mxGeometry x="-1295" y="570" width="310" height="140" as="geometry"/>
                </mxCell>
                <mxCell id="8CgH0KMzsaKHRVF05yF4-56" value="OK" style="strokeWidth=1;shadow=0;dashed=0;align=center;html=1;shape=mxgraph.mockup.containers.rrect;rSize=0;fontSize=16;fontColor=#666666;strokeColor=#c4c4c4;whiteSpace=wrap;fillColor=none;" vertex="1" parent="8CgH0KMzsaKHRVF05yF4-55">
                    <mxGeometry x="0.75" y="1" width="90" height="25" relative="1" as="geometry">
                        <mxPoint x="-122.5" y="-33" as="offset"/>
                    </mxGeometry>
                </mxCell>
                <mxCell id="8CgH0KMzsaKHRVF05yF4-57" value="Alert" style="strokeWidth=1;shadow=0;dashed=0;align=center;html=1;shape=mxgraph.mockup.containers.rrect;rSize=0;fontSize=17;fontColor=#666666;strokeColor=#666666;align=left;spacingLeft=8;fillColor=none;resizeWidth=1;" vertex="1" parent="8CgH0KMzsaKHRVF05yF4-55">
                    <mxGeometry width="310" height="30" relative="1" as="geometry"/>
                </mxCell>
                <mxCell id="8CgH0KMzsaKHRVF05yF4-58" value="" style="shape=ellipse;strokeColor=#008cff;resizable=0;fillColor=none;html=1;" vertex="1" parent="8CgH0KMzsaKHRVF05yF4-57">
                    <mxGeometry x="1" y="0.5" width="20" height="20" relative="1" as="geometry">
                        <mxPoint x="-25" y="-10" as="offset"/>
                    </mxGeometry>
                </mxCell>
                <mxCell id="8CgH0KMzsaKHRVF05yF4-60" value="&lt;br&gt;Failed login !" style="strokeWidth=1;shadow=0;dashed=0;align=center;html=1;shape=mxgraph.mockup.containers.rrect;rSize=0;strokeColor=#666666;fontColor=#666666;fontSize=17;verticalAlign=top;whiteSpace=wrap;fillColor=#ffffff;spacingTop=32;rounded=0;sketch=0;" vertex="1" parent="8CgH0KMzsaKHRVF05yF4-36">
                    <mxGeometry x="-2405" y="530" width="310" height="140" as="geometry"/>
                </mxCell>
                <mxCell id="8CgH0KMzsaKHRVF05yF4-61" value="OK" style="strokeWidth=1;shadow=0;dashed=0;align=center;html=1;shape=mxgraph.mockup.containers.rrect;rSize=0;fontSize=16;fontColor=#666666;strokeColor=#c4c4c4;whiteSpace=wrap;fillColor=none;" vertex="1" parent="8CgH0KMzsaKHRVF05yF4-60">
                    <mxGeometry x="0.75" y="1" width="90" height="25" relative="1" as="geometry">
                        <mxPoint x="-122.5" y="-33" as="offset"/>
                    </mxGeometry>
                </mxCell>
                <mxCell id="8CgH0KMzsaKHRVF05yF4-62" value="Alert" style="strokeWidth=1;shadow=0;dashed=0;align=center;html=1;shape=mxgraph.mockup.containers.rrect;rSize=0;fontSize=17;fontColor=#666666;strokeColor=#666666;align=left;spacingLeft=8;fillColor=none;resizeWidth=1;" vertex="1" parent="8CgH0KMzsaKHRVF05yF4-60">
                    <mxGeometry width="310" height="30" relative="1" as="geometry"/>
                </mxCell>
                <mxCell id="8CgH0KMzsaKHRVF05yF4-63" value="" style="shape=ellipse;strokeColor=#008cff;resizable=0;fillColor=none;html=1;" vertex="1" parent="8CgH0KMzsaKHRVF05yF4-62">
                    <mxGeometry x="1" y="0.5" width="20" height="20" relative="1" as="geometry">
                        <mxPoint x="-25" y="-10" as="offset"/>
                    </mxGeometry>
                </mxCell>
                <mxCell id="8CgH0KMzsaKHRVF05yF4-64" value="Verify your account email address.&lt;br&gt;exsample@mail.com" style="strokeWidth=1;shadow=0;dashed=0;align=center;html=1;shape=mxgraph.mockup.containers.rrect;rSize=0;strokeColor=#666666;fontColor=#666666;fontSize=17;verticalAlign=top;whiteSpace=wrap;fillColor=#ffffff;spacingTop=32;rounded=0;sketch=0;" vertex="1" parent="8CgH0KMzsaKHRVF05yF4-36">
                    <mxGeometry x="-2005" y="530" width="310" height="140" as="geometry"/>
                </mxCell>
                <mxCell id="8CgH0KMzsaKHRVF05yF4-65" value="OK" style="strokeWidth=1;shadow=0;dashed=0;align=center;html=1;shape=mxgraph.mockup.containers.rrect;rSize=0;fontSize=16;fontColor=#666666;strokeColor=#c4c4c4;whiteSpace=wrap;fillColor=none;" vertex="1" parent="8CgH0KMzsaKHRVF05yF4-64">
                    <mxGeometry x="0.75" y="1" width="90" height="25" relative="1" as="geometry">
                        <mxPoint x="-122.5" y="-33" as="offset"/>
                    </mxGeometry>
                </mxCell>
                <mxCell id="8CgH0KMzsaKHRVF05yF4-66" value="Alert" style="strokeWidth=1;shadow=0;dashed=0;align=center;html=1;shape=mxgraph.mockup.containers.rrect;rSize=0;fontSize=17;fontColor=#666666;strokeColor=#666666;align=left;spacingLeft=8;fillColor=none;resizeWidth=1;" vertex="1" parent="8CgH0KMzsaKHRVF05yF4-64">
                    <mxGeometry width="310" height="30" relative="1" as="geometry"/>
                </mxCell>
                <mxCell id="8CgH0KMzsaKHRVF05yF4-67" value="" style="shape=ellipse;strokeColor=#008cff;resizable=0;fillColor=none;html=1;" vertex="1" parent="8CgH0KMzsaKHRVF05yF4-66">
                    <mxGeometry x="1" y="0.5" width="20" height="20" relative="1" as="geometry">
                        <mxPoint x="-25" y="-10" as="offset"/>
                    </mxGeometry>
                </mxCell>
                <mxCell id="8CgH0KMzsaKHRVF05yF4-68" value="&lt;br&gt;Please fill out all information." style="strokeWidth=1;shadow=0;dashed=0;align=center;html=1;shape=mxgraph.mockup.containers.rrect;rSize=0;strokeColor=#666666;fontColor=#666666;fontSize=17;verticalAlign=top;whiteSpace=wrap;fillColor=#ffffff;spacingTop=32;rounded=0;sketch=0;" vertex="1" parent="8CgH0KMzsaKHRVF05yF4-36">
                    <mxGeometry x="-925" y="570" width="310" height="140" as="geometry"/>
                </mxCell>
                <mxCell id="8CgH0KMzsaKHRVF05yF4-69" value="OK" style="strokeWidth=1;shadow=0;dashed=0;align=center;html=1;shape=mxgraph.mockup.containers.rrect;rSize=0;fontSize=16;fontColor=#666666;strokeColor=#c4c4c4;whiteSpace=wrap;fillColor=none;" vertex="1" parent="8CgH0KMzsaKHRVF05yF4-68">
                    <mxGeometry x="0.75" y="1" width="90" height="25" relative="1" as="geometry">
                        <mxPoint x="-122.5" y="-33" as="offset"/>
                    </mxGeometry>
                </mxCell>
                <mxCell id="8CgH0KMzsaKHRVF05yF4-70" value="Alert" style="strokeWidth=1;shadow=0;dashed=0;align=center;html=1;shape=mxgraph.mockup.containers.rrect;rSize=0;fontSize=17;fontColor=#666666;strokeColor=#666666;align=left;spacingLeft=8;fillColor=none;resizeWidth=1;" vertex="1" parent="8CgH0KMzsaKHRVF05yF4-68">
                    <mxGeometry width="310" height="30" relative="1" as="geometry"/>
                </mxCell>
                <mxCell id="8CgH0KMzsaKHRVF05yF4-71" value="" style="shape=ellipse;strokeColor=#008cff;resizable=0;fillColor=none;html=1;" vertex="1" parent="8CgH0KMzsaKHRVF05yF4-70">
                    <mxGeometry x="1" y="0.5" width="20" height="20" relative="1" as="geometry">
                        <mxPoint x="-25" y="-10" as="offset"/>
                    </mxGeometry>
                </mxCell>
                <mxCell id="jlBztP9HJ9qdyP_1mLeQ-24" value="" style="group" vertex="1" connectable="0" parent="V7ItCuovpPEUFhIJDj6l-1">
                    <mxGeometry x="375" y="195" width="435" height="460" as="geometry"/>
                </mxCell>
                <mxCell id="jlBztP9HJ9qdyP_1mLeQ-12" value="" style="rounded=0;whiteSpace=wrap;html=1;sketch=0;strokeColor=#E07A5F;fillColor=#FFFFFF;fontColor=#393C56;" vertex="1" parent="jlBztP9HJ9qdyP_1mLeQ-24">
                    <mxGeometry width="330" height="460" as="geometry"/>
                </mxCell>
                <mxCell id="jlBztP9HJ9qdyP_1mLeQ-13" value="Login" style="text;html=1;strokeColor=none;fillColor=none;align=center;verticalAlign=middle;whiteSpace=wrap;rounded=0;sketch=0;fontColor=#393C56;fontSize=18;fontStyle=1" vertex="1" parent="jlBztP9HJ9qdyP_1mLeQ-24">
                    <mxGeometry x="120" y="110" width="90" height="50" as="geometry"/>
                </mxCell>
                <mxCell id="jlBztP9HJ9qdyP_1mLeQ-14" value="Logo" style="ellipse;whiteSpace=wrap;html=1;aspect=fixed;rounded=0;sketch=0;strokeColor=#E07A5F;fillColor=#FFFFFF;fontSize=18;fontColor=#393C56;" vertex="1" parent="jlBztP9HJ9qdyP_1mLeQ-24">
                    <mxGeometry x="125" y="30" width="80" height="80" as="geometry"/>
                </mxCell>
                <mxCell id="jlBztP9HJ9qdyP_1mLeQ-17" value="" style="group" vertex="1" connectable="0" parent="jlBztP9HJ9qdyP_1mLeQ-24">
                    <mxGeometry x="15" y="165" width="300" height="65" as="geometry"/>
                </mxCell>
                <mxCell id="jlBztP9HJ9qdyP_1mLeQ-15" value="Username :" style="text;html=1;strokeColor=none;fillColor=none;align=center;verticalAlign=middle;whiteSpace=wrap;rounded=0;sketch=0;fontSize=18;fontColor=#393C56;" vertex="1" parent="jlBztP9HJ9qdyP_1mLeQ-17">
                    <mxGeometry width="120" height="20" as="geometry"/>
                </mxCell>
                <mxCell id="jlBztP9HJ9qdyP_1mLeQ-16" value="" style="rounded=0;whiteSpace=wrap;html=1;sketch=0;strokeColor=#E07A5F;fillColor=#FFFFFF;fontSize=18;fontColor=#393C56;" vertex="1" parent="jlBztP9HJ9qdyP_1mLeQ-17">
                    <mxGeometry y="30" width="300" height="35" as="geometry"/>
                </mxCell>
                <mxCell id="jlBztP9HJ9qdyP_1mLeQ-18" value="" style="group" vertex="1" connectable="0" parent="jlBztP9HJ9qdyP_1mLeQ-24">
                    <mxGeometry x="15" y="250" width="300" height="65" as="geometry"/>
                </mxCell>
                <mxCell id="jlBztP9HJ9qdyP_1mLeQ-19" value="Password :" style="text;html=1;strokeColor=none;fillColor=none;align=center;verticalAlign=middle;whiteSpace=wrap;rounded=0;sketch=0;fontSize=18;fontColor=#393C56;" vertex="1" parent="jlBztP9HJ9qdyP_1mLeQ-18">
                    <mxGeometry width="120" height="20" as="geometry"/>
                </mxCell>
                <mxCell id="jlBztP9HJ9qdyP_1mLeQ-20" value="" style="rounded=0;whiteSpace=wrap;html=1;sketch=0;strokeColor=#E07A5F;fillColor=#FFFFFF;fontSize=18;fontColor=#393C56;" vertex="1" parent="jlBztP9HJ9qdyP_1mLeQ-18">
                    <mxGeometry y="30" width="300" height="35" as="geometry"/>
                </mxCell>
                <mxCell id="jlBztP9HJ9qdyP_1mLeQ-21" value="Register" style="text;html=1;strokeColor=none;fillColor=none;align=center;verticalAlign=middle;whiteSpace=wrap;rounded=0;sketch=0;fontSize=18;fontColor=#393C56;" vertex="1" parent="jlBztP9HJ9qdyP_1mLeQ-24">
                    <mxGeometry x="20" y="340" width="100" height="20" as="geometry"/>
                </mxCell>
                <UserObject label="Forgot Password" id="jlBztP9HJ9qdyP_1mLeQ-22">
                    <mxCell style="text;html=1;strokeColor=none;fillColor=none;align=center;verticalAlign=middle;whiteSpace=wrap;rounded=0;sketch=0;fontSize=18;fontColor=#393C56;" vertex="1" parent="jlBztP9HJ9qdyP_1mLeQ-24">
                        <mxGeometry x="165" y="340" width="150" height="20" as="geometry"/>
                    </mxCell>
                </UserObject>
                <mxCell id="jlBztP9HJ9qdyP_1mLeQ-23" value="Login" style="strokeWidth=1;shadow=0;dashed=0;align=center;html=1;shape=mxgraph.mockup.buttons.button;strokeColor=#314354;mainText=;buttonStyle=round;fontSize=17;fontStyle=1;fillColor=#647687;whiteSpace=wrap;rounded=0;sketch=0;fontColor=#ffffff;" vertex="1" parent="jlBztP9HJ9qdyP_1mLeQ-24">
                    <mxGeometry x="90" y="380" width="150" height="50" as="geometry"/>
                </mxCell>
                <mxCell id="EBjXDyC0AjNq8hZx2zcO-1" value="" style="group" vertex="1" connectable="0" parent="jlBztP9HJ9qdyP_1mLeQ-24">
                    <mxGeometry x="-335" y="1075" width="1000" height="180" as="geometry"/>
                </mxCell>
                <mxCell id="EBjXDyC0AjNq8hZx2zcO-2" value="" style="rounded=0;whiteSpace=wrap;html=1;sketch=0;fillColor=#f5f5f5;fontSize=18;align=left;fontColor=#333333;strokeColor=none;" vertex="1" parent="EBjXDyC0AjNq8hZx2zcO-1">
                    <mxGeometry width="1000" height="180" as="geometry"/>
                </mxCell>
                <object label="Log In/Logout" id="EBjXDyC0AjNq8hZx2zcO-3">
                    <mxCell style="text;html=1;strokeColor=none;fillColor=none;align=center;verticalAlign=middle;whiteSpace=wrap;rounded=0;sketch=0;fontSize=18;fontColor=#393C56;" vertex="1" parent="EBjXDyC0AjNq8hZx2zcO-1">
                        <mxGeometry x="827.5" y="140" width="125" height="20" as="geometry"/>
                    </mxCell>
                </object>
                <mxCell id="EBjXDyC0AjNq8hZx2zcO-4" value="Logo" style="ellipse;whiteSpace=wrap;html=1;aspect=fixed;rounded=0;sketch=0;strokeColor=#E07A5F;fillColor=#FFFFFF;fontSize=18;fontColor=#393C56;align=center;" vertex="1" parent="EBjXDyC0AjNq8hZx2zcO-1">
                    <mxGeometry x="70" y="60" width="80" height="80" as="geometry"/>
                </mxCell>
                <mxCell id="EBjXDyC0AjNq8hZx2zcO-5" value="Search" style="strokeWidth=1;shadow=0;dashed=0;align=center;html=1;shape=mxgraph.mockup.forms.searchBox;strokeColor=#999999;mainText=;strokeColor2=#008cff;fontColor=#666666;fontSize=17;align=left;spacingLeft=3;rounded=0;sketch=0;fillColor=#FFFFFF;" vertex="1" parent="EBjXDyC0AjNq8hZx2zcO-1">
                    <mxGeometry x="200" y="80" width="580" height="45" as="geometry"/>
                </mxCell>
                <mxCell id="EBjXDyC0AjNq8hZx2zcO-6" value="" style="verticalLabelPosition=bottom;shadow=0;dashed=0;align=center;html=1;verticalAlign=top;strokeWidth=1;shape=mxgraph.mockup.misc.shoppingCart;strokeColor=#999999;rounded=0;sketch=0;fillColor=#FFFFFF;fontSize=18;fontColor=#393C56;" vertex="1" parent="EBjXDyC0AjNq8hZx2zcO-1">
                    <mxGeometry x="810" y="75" width="50" height="50" as="geometry"/>
                </mxCell>
                <mxCell id="EBjXDyC0AjNq8hZx2zcO-7" value="" style="shape=actor;whiteSpace=wrap;html=1;rounded=0;sketch=0;strokeColor=#E07A5F;fillColor=#FFFFFF;fontSize=18;fontColor=#393C56;align=left;" vertex="1" parent="EBjXDyC0AjNq8hZx2zcO-1">
                    <mxGeometry x="870" y="80" width="40" height="47.5" as="geometry"/>
                </mxCell>
                <object label="Name" id="EBjXDyC0AjNq8hZx2zcO-8">
                    <mxCell style="text;html=1;strokeColor=none;fillColor=none;align=center;verticalAlign=middle;whiteSpace=wrap;rounded=0;sketch=0;fontSize=18;fontColor=#393C56;" vertex="1" parent="EBjXDyC0AjNq8hZx2zcO-1">
                        <mxGeometry x="920" y="100" width="70" height="20" as="geometry"/>
                    </mxCell>
                </object>
                <mxCell id="7RRr_ebmiQOzfgmXOCdE-45" value="" style="group" vertex="1" connectable="0" parent="jlBztP9HJ9qdyP_1mLeQ-24">
                    <mxGeometry x="755" y="1085" width="1000" height="180" as="geometry"/>
                </mxCell>
                <mxCell id="7RRr_ebmiQOzfgmXOCdE-46" value="" style="rounded=0;whiteSpace=wrap;html=1;sketch=0;fillColor=#f5f5f5;fontSize=18;align=left;fontColor=#333333;strokeColor=none;" vertex="1" parent="7RRr_ebmiQOzfgmXOCdE-45">
                    <mxGeometry width="1000" height="180" as="geometry"/>
                </mxCell>
                <object label="Log In/Logout" id="7RRr_ebmiQOzfgmXOCdE-47">
                    <mxCell style="text;html=1;strokeColor=none;fillColor=none;align=center;verticalAlign=middle;whiteSpace=wrap;rounded=0;sketch=0;fontSize=18;fontColor=#393C56;" vertex="1" parent="7RRr_ebmiQOzfgmXOCdE-45">
                        <mxGeometry x="827.5" y="140" width="125" height="20" as="geometry"/>
                    </mxCell>
                </object>
                <mxCell id="7RRr_ebmiQOzfgmXOCdE-48" value="Logo" style="ellipse;whiteSpace=wrap;html=1;aspect=fixed;rounded=0;sketch=0;strokeColor=#E07A5F;fillColor=#FFFFFF;fontSize=18;fontColor=#393C56;align=center;" vertex="1" parent="7RRr_ebmiQOzfgmXOCdE-45">
                    <mxGeometry x="70" y="60" width="80" height="80" as="geometry"/>
                </mxCell>
                <mxCell id="7RRr_ebmiQOzfgmXOCdE-49" value="Search" style="strokeWidth=1;shadow=0;dashed=0;align=center;html=1;shape=mxgraph.mockup.forms.searchBox;strokeColor=#999999;mainText=;strokeColor2=#008cff;fontColor=#666666;fontSize=17;align=left;spacingLeft=3;rounded=0;sketch=0;fillColor=#FFFFFF;" vertex="1" parent="7RRr_ebmiQOzfgmXOCdE-45">
                    <mxGeometry x="200" y="80" width="580" height="45" as="geometry"/>
                </mxCell>
                <mxCell id="7RRr_ebmiQOzfgmXOCdE-51" value="" style="shape=actor;whiteSpace=wrap;html=1;rounded=0;sketch=0;strokeColor=#E07A5F;fillColor=#FFFFFF;fontSize=18;fontColor=#393C56;align=left;" vertex="1" parent="7RRr_ebmiQOzfgmXOCdE-45">
                    <mxGeometry x="870" y="80" width="40" height="47.5" as="geometry"/>
                </mxCell>
                <object label="Name" id="7RRr_ebmiQOzfgmXOCdE-52">
                    <mxCell style="text;html=1;strokeColor=none;fillColor=none;align=center;verticalAlign=middle;whiteSpace=wrap;rounded=0;sketch=0;fontSize=18;fontColor=#393C56;" vertex="1" parent="7RRr_ebmiQOzfgmXOCdE-45">
                        <mxGeometry x="920" y="100" width="70" height="20" as="geometry"/>
                    </mxCell>
                </object>
                <mxCell id="8CgH0KMzsaKHRVF05yF4-54" value="" style="group" vertex="1" connectable="0" parent="V7ItCuovpPEUFhIJDj6l-1">
                    <mxGeometry x="1470" y="160" width="330" height="530" as="geometry"/>
                </mxCell>
                <mxCell id="8CgH0KMzsaKHRVF05yF4-1" value="" style="rounded=0;whiteSpace=wrap;html=1;sketch=0;strokeColor=#E07A5F;fillColor=#FFFFFF;fontColor=#393C56;" vertex="1" parent="8CgH0KMzsaKHRVF05yF4-54">
                    <mxGeometry width="330" height="480" as="geometry"/>
                </mxCell>
                <mxCell id="8CgH0KMzsaKHRVF05yF4-2" value="&amp;lt; Register" style="text;html=1;strokeColor=none;fillColor=none;align=center;verticalAlign=middle;whiteSpace=wrap;rounded=0;sketch=0;fontColor=#393C56;fontSize=18;fontStyle=1" vertex="1" parent="8CgH0KMzsaKHRVF05yF4-54">
                    <mxGeometry x="12.5" y="10" width="115" height="50" as="geometry"/>
                </mxCell>
                <mxCell id="8CgH0KMzsaKHRVF05yF4-12" value="Register" style="strokeWidth=1;shadow=0;dashed=0;align=center;html=1;shape=mxgraph.mockup.buttons.button;strokeColor=#314354;mainText=;buttonStyle=round;fontSize=17;fontStyle=1;fillColor=#647687;whiteSpace=wrap;rounded=0;sketch=0;fontColor=#ffffff;" vertex="1" parent="8CgH0KMzsaKHRVF05yF4-54">
                    <mxGeometry x="90" y="400" width="150" height="50" as="geometry"/>
                </mxCell>
                <mxCell id="8CgH0KMzsaKHRVF05yF4-4" value="" style="group" vertex="1" connectable="0" parent="8CgH0KMzsaKHRVF05yF4-54">
                    <mxGeometry x="15" y="140" width="300" height="65" as="geometry"/>
                </mxCell>
                <mxCell id="8CgH0KMzsaKHRVF05yF4-5" value="Username * :" style="text;html=1;strokeColor=none;fillColor=none;align=left;verticalAlign=middle;whiteSpace=wrap;rounded=0;sketch=0;fontSize=18;fontColor=#393C56;" vertex="1" parent="8CgH0KMzsaKHRVF05yF4-4">
                    <mxGeometry width="120" height="20" as="geometry"/>
                </mxCell>
                <mxCell id="8CgH0KMzsaKHRVF05yF4-6" value="" style="rounded=0;whiteSpace=wrap;html=1;sketch=0;strokeColor=#E07A5F;fillColor=#FFFFFF;fontSize=18;fontColor=#393C56;" vertex="1" parent="8CgH0KMzsaKHRVF05yF4-4">
                    <mxGeometry y="30" width="300" height="35" as="geometry"/>
                </mxCell>
                <mxCell id="8CgH0KMzsaKHRVF05yF4-7" value="" style="group" vertex="1" connectable="0" parent="8CgH0KMzsaKHRVF05yF4-54">
                    <mxGeometry x="15" y="220" width="300" height="65" as="geometry"/>
                </mxCell>
                <mxCell id="8CgH0KMzsaKHRVF05yF4-8" value="Password * :" style="text;html=1;strokeColor=none;fillColor=none;align=left;verticalAlign=middle;whiteSpace=wrap;rounded=0;sketch=0;fontSize=18;fontColor=#393C56;" vertex="1" parent="8CgH0KMzsaKHRVF05yF4-7">
                    <mxGeometry width="120" height="20" as="geometry"/>
                </mxCell>
                <mxCell id="8CgH0KMzsaKHRVF05yF4-9" value="" style="rounded=0;whiteSpace=wrap;html=1;sketch=0;strokeColor=#E07A5F;fillColor=#FFFFFF;fontSize=18;fontColor=#393C56;" vertex="1" parent="8CgH0KMzsaKHRVF05yF4-7">
                    <mxGeometry y="30" width="300" height="35" as="geometry"/>
                </mxCell>
                <mxCell id="8CgH0KMzsaKHRVF05yF4-59" value="" style="group" vertex="1" connectable="0" parent="8CgH0KMzsaKHRVF05yF4-54">
                    <mxGeometry x="15" y="60" width="300" height="65" as="geometry"/>
                </mxCell>
                <mxCell id="8CgH0KMzsaKHRVF05yF4-14" value="Email * :" style="text;html=1;strokeColor=none;fillColor=none;align=left;verticalAlign=middle;whiteSpace=wrap;rounded=0;sketch=0;fontSize=18;fontColor=#393C56;" vertex="1" parent="8CgH0KMzsaKHRVF05yF4-59">
                    <mxGeometry width="120" height="20" as="geometry"/>
                </mxCell>
                <mxCell id="8CgH0KMzsaKHRVF05yF4-15" value="" style="rounded=0;whiteSpace=wrap;html=1;sketch=0;strokeColor=#E07A5F;fillColor=#FFFFFF;fontSize=18;fontColor=#393C56;" vertex="1" parent="8CgH0KMzsaKHRVF05yF4-59">
                    <mxGeometry y="30" width="300" height="35" as="geometry"/>
                </mxCell>
                <mxCell id="8CgH0KMzsaKHRVF05yF4-16" value="" style="group" vertex="1" connectable="0" parent="8CgH0KMzsaKHRVF05yF4-54">
                    <mxGeometry x="15" y="300" width="300" height="65" as="geometry"/>
                </mxCell>
                <mxCell id="8CgH0KMzsaKHRVF05yF4-17" value="Tel&amp;nbsp; :" style="text;html=1;strokeColor=none;fillColor=none;align=left;verticalAlign=middle;whiteSpace=wrap;rounded=0;sketch=0;fontSize=18;fontColor=#393C56;" vertex="1" parent="8CgH0KMzsaKHRVF05yF4-16">
                    <mxGeometry width="120" height="20" as="geometry"/>
                </mxCell>
                <mxCell id="8CgH0KMzsaKHRVF05yF4-18" value="" style="rounded=0;whiteSpace=wrap;html=1;sketch=0;strokeColor=#E07A5F;fillColor=#FFFFFF;fontSize=18;fontColor=#393C56;" vertex="1" parent="8CgH0KMzsaKHRVF05yF4-16">
                    <mxGeometry y="30" width="300" height="35" as="geometry"/>
                </mxCell>
                <mxCell id="r7LRQeCQxJZfCs1Y7XA6-11" style="edgeStyle=orthogonalEdgeStyle;curved=0;rounded=1;sketch=0;orthogonalLoop=1;jettySize=auto;html=1;strokeColor=#E07A5F;fillColor=#F2CC8F;fontSize=18;fontColor=#393C56;endArrow=none;endFill=0;startArrow=classic;startFill=1;entryX=0.75;entryY=1;entryDx=0;entryDy=0;" edge="1" parent="V7ItCuovpPEUFhIJDj6l-1" target="r7LRQeCQxJZfCs1Y7XA6-1">
                    <mxGeometry relative="1" as="geometry">
                        <mxPoint x="-90" y="265.0000000000002" as="sourcePoint"/>
                        <mxPoint x="-135" y="255" as="targetPoint"/>
                    </mxGeometry>
                </mxCell>
                <mxCell id="r7LRQeCQxJZfCs1Y7XA6-9" value="2" style="ellipse;whiteSpace=wrap;html=1;aspect=fixed;rounded=0;sketch=0;strokeColor=#E07A5F;fillColor=#FFFFFF;fontSize=18;fontColor=#393C56;align=center;" vertex="1" parent="V7ItCuovpPEUFhIJDj6l-1">
                    <mxGeometry x="-100" y="250" width="30" height="30" as="geometry"/>
                </mxCell>
                <mxCell id="r7LRQeCQxJZfCs1Y7XA6-24" value="" style="html=1;shadow=0;dashed=0;shape=mxgraph.bootstrap.rrect;rSize=5;strokeColor=#D2D3D4;html=1;whiteSpace=wrap;fillColor=#F8F9FA;fontColor=#212529;verticalAlign=bottom;align=left;spacing=20;spacingBottom=0;fontSize=14;rounded=0;sketch=0;" vertex="1" parent="V7ItCuovpPEUFhIJDj6l-1">
                    <mxGeometry x="-750" y="580" width="670" height="1190" as="geometry"/>
                </mxCell>
                <mxCell id="r7LRQeCQxJZfCs1Y7XA6-25" value="Shop" style="html=1;shadow=0;dashed=0;shape=mxgraph.bootstrap.topButton;rSize=5;perimeter=none;whiteSpace=wrap;fillColor=#F0F1F2;strokeColor=#D2D3D4;fontColor=#212529;resizeWidth=1;fontSize=18;align=left;spacing=20;" vertex="1" parent="r7LRQeCQxJZfCs1Y7XA6-24">
                    <mxGeometry width="670" height="50" relative="1" as="geometry"/>
                </mxCell>
                <mxCell id="r7LRQeCQxJZfCs1Y7XA6-172" value="" style="html=1;shadow=0;dashed=0;shape=mxgraph.bootstrap.rrect;rSize=5;strokeColor=#DEE2E6;html=1;whiteSpace=wrap;fillColor=#ffffff;fontColor=#0085FC;fontSize=14;rounded=0;sketch=0;align=left;" vertex="1" parent="r7LRQeCQxJZfCs1Y7XA6-24">
                    <mxGeometry x="40" y="1150" width="220" height="30" as="geometry"/>
                </mxCell>
                <mxCell id="r7LRQeCQxJZfCs1Y7XA6-173" value="Previous" style="strokeColor=inherit;fillColor=inherit;gradientColor=inherit;fontColor=inherit;html=1;shadow=0;dashed=0;shape=mxgraph.bootstrap.leftButton;rSize=5;perimeter=none;whiteSpace=wrap;resizeHeight=1;fontSize=14;" vertex="1" parent="r7LRQeCQxJZfCs1Y7XA6-172">
                    <mxGeometry width="70" height="30" relative="1" as="geometry"/>
                </mxCell>
                <mxCell id="r7LRQeCQxJZfCs1Y7XA6-174" value="1" style="strokeColor=inherit;fillColor=inherit;gradientColor=inherit;fontColor=inherit;html=1;shadow=0;dashed=0;perimeter=none;whiteSpace=wrap;resizeHeight=1;fontSize=14;" vertex="1" parent="r7LRQeCQxJZfCs1Y7XA6-172">
                    <mxGeometry width="30" height="30" relative="1" as="geometry">
                        <mxPoint x="70" as="offset"/>
                    </mxGeometry>
                </mxCell>
                <mxCell id="r7LRQeCQxJZfCs1Y7XA6-175" value="2" style="strokeColor=inherit;fillColor=inherit;gradientColor=inherit;fontColor=inherit;html=1;shadow=0;dashed=0;perimeter=none;whiteSpace=wrap;resizeHeight=1;fontSize=14;" vertex="1" parent="r7LRQeCQxJZfCs1Y7XA6-172">
                    <mxGeometry width="30" height="30" relative="1" as="geometry">
                        <mxPoint x="100" as="offset"/>
                    </mxGeometry>
                </mxCell>
                <mxCell id="r7LRQeCQxJZfCs1Y7XA6-176" value="3" style="strokeColor=inherit;fillColor=inherit;gradientColor=inherit;fontColor=inherit;html=1;shadow=0;dashed=0;perimeter=none;whiteSpace=wrap;resizeHeight=1;fontSize=14;" vertex="1" parent="r7LRQeCQxJZfCs1Y7XA6-172">
                    <mxGeometry width="30" height="30" relative="1" as="geometry">
                        <mxPoint x="130" as="offset"/>
                    </mxGeometry>
                </mxCell>
                <mxCell id="r7LRQeCQxJZfCs1Y7XA6-177" value="Next" style="strokeColor=inherit;fillColor=inherit;gradientColor=inherit;fontColor=inherit;html=1;shadow=0;dashed=0;shape=mxgraph.bootstrap.rightButton;rSize=5;perimeter=none;whiteSpace=wrap;resizeHeight=1;fontSize=14;" vertex="1" parent="r7LRQeCQxJZfCs1Y7XA6-172">
                    <mxGeometry x="1" width="60" height="30" relative="1" as="geometry">
                        <mxPoint x="-60" as="offset"/>
                    </mxGeometry>
                </mxCell>
                <mxCell id="r7LRQeCQxJZfCs1Y7XA6-178" value="" style="html=1;shadow=0;dashed=0;shape=mxgraph.bootstrap.rrect;rSize=5;strokeColor=none;html=1;whiteSpace=wrap;fillColor=#6C767D;fontColor=#ffffff;rounded=0;sketch=0;align=left;" vertex="1" parent="r7LRQeCQxJZfCs1Y7XA6-24">
                    <mxGeometry x="500" y="10" width="150" height="30" as="geometry"/>
                </mxCell>
                <mxCell id="r7LRQeCQxJZfCs1Y7XA6-181" value="Price" style="strokeColor=inherit;fillColor=inherit;gradientColor=inherit;fontColor=inherit;html=1;shadow=0;dashed=0;shape=mxgraph.bootstrap.rightButton;rSize=5;perimeter=none;whiteSpace=wrap;resizeHeight=1;align=left;spacing=10;" vertex="1" parent="r7LRQeCQxJZfCs1Y7XA6-178">
                    <mxGeometry x="1" width="90" height="30" relative="1" as="geometry">
                        <mxPoint x="-90" as="offset"/>
                    </mxGeometry>
                </mxCell>
                <mxCell id="r7LRQeCQxJZfCs1Y7XA6-182" value="" style="shape=triangle;direction=south;fillColor=#ffffff;strokeColor=none;perimeter=none;" vertex="1" parent="r7LRQeCQxJZfCs1Y7XA6-181">
                    <mxGeometry x="1" y="0.5" width="10" height="5" relative="1" as="geometry">
                        <mxPoint x="-17" y="-2.5" as="offset"/>
                    </mxGeometry>
                </mxCell>
                <mxCell id="YofYCnHRwfWKX3bDhyw9-17" value="" style="group" vertex="1" connectable="0" parent="r7LRQeCQxJZfCs1Y7XA6-24">
                    <mxGeometry x="30" y="80" width="610" height="150" as="geometry"/>
                </mxCell>
                <mxCell id="YofYCnHRwfWKX3bDhyw9-7" value="" style="group" vertex="1" connectable="0" parent="YofYCnHRwfWKX3bDhyw9-17">
                    <mxGeometry width="140" height="150" as="geometry"/>
                </mxCell>
                <mxCell id="YofYCnHRwfWKX3bDhyw9-5" value="&lt;font color=&quot;#000000&quot;&gt;Img&lt;/font&gt;" style="rounded=0;whiteSpace=wrap;html=1;sketch=0;strokeColor=#23445d;fillColor=#bac8d3;fontSize=18;align=center;" vertex="1" parent="YofYCnHRwfWKX3bDhyw9-7">
                    <mxGeometry width="140" height="90" as="geometry"/>
                </mxCell>
                <mxCell id="YofYCnHRwfWKX3bDhyw9-6" value="&lt;font style=&quot;font-size: 12px&quot;&gt;ชื่อสินค้า&lt;br&gt;ชื่อร้านค้า&lt;br&gt;ราคา 10,000 บาท&lt;br&gt;&lt;/font&gt;" style="rounded=0;whiteSpace=wrap;html=1;sketch=0;fillColor=#FFFFFF;fontSize=18;fontColor=#393C56;align=right;strokeColor=#000000;" vertex="1" parent="YofYCnHRwfWKX3bDhyw9-7">
                    <mxGeometry y="90" width="140" height="60" as="geometry"/>
                </mxCell>
                <mxCell id="YofYCnHRwfWKX3bDhyw9-8" value="" style="group" vertex="1" connectable="0" parent="YofYCnHRwfWKX3bDhyw9-17">
                    <mxGeometry x="160" width="140" height="150" as="geometry"/>
                </mxCell>
                <mxCell id="YofYCnHRwfWKX3bDhyw9-9" value="&lt;font color=&quot;#000000&quot;&gt;Img&lt;/font&gt;" style="rounded=0;whiteSpace=wrap;html=1;sketch=0;strokeColor=#23445d;fillColor=#bac8d3;fontSize=18;align=center;" vertex="1" parent="YofYCnHRwfWKX3bDhyw9-8">
                    <mxGeometry width="140" height="90" as="geometry"/>
                </mxCell>
                <mxCell id="YofYCnHRwfWKX3bDhyw9-10" value="&lt;font style=&quot;font-size: 12px&quot;&gt;ชื่อสินค้า&lt;br&gt;ชื่อร้านค้า&lt;br&gt;ราคา 10,000 บาท&lt;br&gt;&lt;/font&gt;" style="rounded=0;whiteSpace=wrap;html=1;sketch=0;fillColor=#FFFFFF;fontSize=18;fontColor=#393C56;align=right;strokeColor=#000000;" vertex="1" parent="YofYCnHRwfWKX3bDhyw9-8">
                    <mxGeometry y="90" width="140" height="60" as="geometry"/>
                </mxCell>
                <mxCell id="YofYCnHRwfWKX3bDhyw9-11" value="" style="group" vertex="1" connectable="0" parent="YofYCnHRwfWKX3bDhyw9-17">
                    <mxGeometry x="320" width="140" height="150" as="geometry"/>
                </mxCell>
                <mxCell id="YofYCnHRwfWKX3bDhyw9-12" value="&lt;font color=&quot;#000000&quot;&gt;Img&lt;/font&gt;" style="rounded=0;whiteSpace=wrap;html=1;sketch=0;strokeColor=#23445d;fillColor=#bac8d3;fontSize=18;align=center;" vertex="1" parent="YofYCnHRwfWKX3bDhyw9-11">
                    <mxGeometry width="140" height="90" as="geometry"/>
                </mxCell>
                <mxCell id="YofYCnHRwfWKX3bDhyw9-13" value="&lt;font style=&quot;font-size: 12px&quot;&gt;ชื่อสินค้า&lt;br&gt;ชื่อร้านค้า&lt;br&gt;ราคา 10,000 บาท&lt;br&gt;&lt;/font&gt;" style="rounded=0;whiteSpace=wrap;html=1;sketch=0;fillColor=#FFFFFF;fontSize=18;fontColor=#393C56;align=right;strokeColor=#000000;" vertex="1" parent="YofYCnHRwfWKX3bDhyw9-11">
                    <mxGeometry y="90" width="140" height="60" as="geometry"/>
                </mxCell>
                <mxCell id="YofYCnHRwfWKX3bDhyw9-14" value="" style="group" vertex="1" connectable="0" parent="YofYCnHRwfWKX3bDhyw9-17">
                    <mxGeometry x="470" width="140" height="150" as="geometry"/>
                </mxCell>
                <mxCell id="YofYCnHRwfWKX3bDhyw9-15" value="&lt;font color=&quot;#000000&quot;&gt;Img&lt;/font&gt;" style="rounded=0;whiteSpace=wrap;html=1;sketch=0;strokeColor=#23445d;fillColor=#bac8d3;fontSize=18;align=center;" vertex="1" parent="YofYCnHRwfWKX3bDhyw9-14">
                    <mxGeometry width="140" height="90" as="geometry"/>
                </mxCell>
                <mxCell id="YofYCnHRwfWKX3bDhyw9-16" value="&lt;font style=&quot;font-size: 12px&quot;&gt;ชื่อสินค้า&lt;br&gt;ชื่อร้านค้า&lt;br&gt;ราคา 10,000 บาท&lt;br&gt;&lt;/font&gt;" style="rounded=0;whiteSpace=wrap;html=1;sketch=0;fillColor=#FFFFFF;fontSize=18;fontColor=#393C56;align=right;strokeColor=#000000;" vertex="1" parent="YofYCnHRwfWKX3bDhyw9-14">
                    <mxGeometry y="90" width="140" height="60" as="geometry"/>
                </mxCell>
                <mxCell id="YofYCnHRwfWKX3bDhyw9-18" value="" style="group" vertex="1" connectable="0" parent="r7LRQeCQxJZfCs1Y7XA6-24">
                    <mxGeometry x="30" y="250" width="610" height="150" as="geometry"/>
                </mxCell>
                <mxCell id="YofYCnHRwfWKX3bDhyw9-19" value="" style="group" vertex="1" connectable="0" parent="YofYCnHRwfWKX3bDhyw9-18">
                    <mxGeometry width="140" height="150" as="geometry"/>
                </mxCell>
                <mxCell id="YofYCnHRwfWKX3bDhyw9-20" value="&lt;font color=&quot;#000000&quot;&gt;Img&lt;/font&gt;" style="rounded=0;whiteSpace=wrap;html=1;sketch=0;strokeColor=#23445d;fillColor=#bac8d3;fontSize=18;align=center;" vertex="1" parent="YofYCnHRwfWKX3bDhyw9-19">
                    <mxGeometry width="140" height="90" as="geometry"/>
                </mxCell>
                <mxCell id="YofYCnHRwfWKX3bDhyw9-21" value="&lt;font style=&quot;font-size: 12px&quot;&gt;ชื่อสินค้า&lt;br&gt;ชื่อร้านค้า&lt;br&gt;ราคา 10,000 บาท&lt;br&gt;&lt;/font&gt;" style="rounded=0;whiteSpace=wrap;html=1;sketch=0;fillColor=#FFFFFF;fontSize=18;fontColor=#393C56;align=right;strokeColor=#000000;" vertex="1" parent="YofYCnHRwfWKX3bDhyw9-19">
                    <mxGeometry y="90" width="140" height="60" as="geometry"/>
                </mxCell>
                <mxCell id="YofYCnHRwfWKX3bDhyw9-22" value="" style="group" vertex="1" connectable="0" parent="YofYCnHRwfWKX3bDhyw9-18">
                    <mxGeometry x="160" width="140" height="150" as="geometry"/>
                </mxCell>
                <mxCell id="YofYCnHRwfWKX3bDhyw9-23" value="&lt;font color=&quot;#000000&quot;&gt;Img&lt;/font&gt;" style="rounded=0;whiteSpace=wrap;html=1;sketch=0;strokeColor=#23445d;fillColor=#bac8d3;fontSize=18;align=center;" vertex="1" parent="YofYCnHRwfWKX3bDhyw9-22">
                    <mxGeometry width="140" height="90" as="geometry"/>
                </mxCell>
                <mxCell id="YofYCnHRwfWKX3bDhyw9-24" value="&lt;font style=&quot;font-size: 12px&quot;&gt;ชื่อสินค้า&lt;br&gt;ชื่อร้านค้า&lt;br&gt;ราคา 10,000 บาท&lt;br&gt;&lt;/font&gt;" style="rounded=0;whiteSpace=wrap;html=1;sketch=0;fillColor=#FFFFFF;fontSize=18;fontColor=#393C56;align=right;strokeColor=#000000;" vertex="1" parent="YofYCnHRwfWKX3bDhyw9-22">
                    <mxGeometry y="90" width="140" height="60" as="geometry"/>
                </mxCell>
                <mxCell id="YofYCnHRwfWKX3bDhyw9-25" value="" style="group" vertex="1" connectable="0" parent="YofYCnHRwfWKX3bDhyw9-18">
                    <mxGeometry x="320" width="140" height="150" as="geometry"/>
                </mxCell>
                <mxCell id="YofYCnHRwfWKX3bDhyw9-26" value="&lt;font color=&quot;#000000&quot;&gt;Img&lt;/font&gt;" style="rounded=0;whiteSpace=wrap;html=1;sketch=0;strokeColor=#23445d;fillColor=#bac8d3;fontSize=18;align=center;" vertex="1" parent="YofYCnHRwfWKX3bDhyw9-25">
                    <mxGeometry width="140" height="90" as="geometry"/>
                </mxCell>
                <mxCell id="YofYCnHRwfWKX3bDhyw9-27" value="&lt;font style=&quot;font-size: 12px&quot;&gt;ชื่อสินค้า&lt;br&gt;ชื่อร้านค้า&lt;br&gt;ราคา 10,000 บาท&lt;br&gt;&lt;/font&gt;" style="rounded=0;whiteSpace=wrap;html=1;sketch=0;fillColor=#FFFFFF;fontSize=18;fontColor=#393C56;align=right;strokeColor=#000000;" vertex="1" parent="YofYCnHRwfWKX3bDhyw9-25">
                    <mxGeometry y="90" width="140" height="60" as="geometry"/>
                </mxCell>
                <mxCell id="YofYCnHRwfWKX3bDhyw9-28" value="" style="group" vertex="1" connectable="0" parent="YofYCnHRwfWKX3bDhyw9-18">
                    <mxGeometry x="470" width="140" height="150" as="geometry"/>
                </mxCell>
                <mxCell id="YofYCnHRwfWKX3bDhyw9-29" value="&lt;font color=&quot;#000000&quot;&gt;Img&lt;/font&gt;" style="rounded=0;whiteSpace=wrap;html=1;sketch=0;strokeColor=#23445d;fillColor=#bac8d3;fontSize=18;align=center;" vertex="1" parent="YofYCnHRwfWKX3bDhyw9-28">
                    <mxGeometry width="140" height="90" as="geometry"/>
                </mxCell>
                <mxCell id="YofYCnHRwfWKX3bDhyw9-30" value="&lt;font style=&quot;font-size: 12px&quot;&gt;ชื่อสินค้า&lt;br&gt;ชื่อร้านค้า&lt;br&gt;ราคา 10,000 บาท&lt;br&gt;&lt;/font&gt;" style="rounded=0;whiteSpace=wrap;html=1;sketch=0;fillColor=#FFFFFF;fontSize=18;fontColor=#393C56;align=right;strokeColor=#000000;" vertex="1" parent="YofYCnHRwfWKX3bDhyw9-28">
                    <mxGeometry y="90" width="140" height="60" as="geometry"/>
                </mxCell>
                <mxCell id="YofYCnHRwfWKX3bDhyw9-31" value="" style="group" vertex="1" connectable="0" parent="r7LRQeCQxJZfCs1Y7XA6-24">
                    <mxGeometry x="30" y="420" width="610" height="150" as="geometry"/>
                </mxCell>
                <mxCell id="YofYCnHRwfWKX3bDhyw9-32" value="" style="group" vertex="1" connectable="0" parent="YofYCnHRwfWKX3bDhyw9-31">
                    <mxGeometry width="140" height="150" as="geometry"/>
                </mxCell>
                <mxCell id="YofYCnHRwfWKX3bDhyw9-33" value="&lt;font color=&quot;#000000&quot;&gt;Img&lt;/font&gt;" style="rounded=0;whiteSpace=wrap;html=1;sketch=0;strokeColor=#23445d;fillColor=#bac8d3;fontSize=18;align=center;" vertex="1" parent="YofYCnHRwfWKX3bDhyw9-32">
                    <mxGeometry width="140" height="90" as="geometry"/>
                </mxCell>
                <mxCell id="YofYCnHRwfWKX3bDhyw9-34" value="&lt;font style=&quot;font-size: 12px&quot;&gt;ชื่อสินค้า&lt;br&gt;ชื่อร้านค้า&lt;br&gt;ราคา 10,000 บาท&lt;br&gt;&lt;/font&gt;" style="rounded=0;whiteSpace=wrap;html=1;sketch=0;fillColor=#FFFFFF;fontSize=18;fontColor=#393C56;align=right;strokeColor=#000000;" vertex="1" parent="YofYCnHRwfWKX3bDhyw9-32">
                    <mxGeometry y="90" width="140" height="60" as="geometry"/>
                </mxCell>
                <mxCell id="YofYCnHRwfWKX3bDhyw9-35" value="" style="group" vertex="1" connectable="0" parent="YofYCnHRwfWKX3bDhyw9-31">
                    <mxGeometry x="160" width="140" height="150" as="geometry"/>
                </mxCell>
                <mxCell id="YofYCnHRwfWKX3bDhyw9-36" value="&lt;font color=&quot;#000000&quot;&gt;Img&lt;/font&gt;" style="rounded=0;whiteSpace=wrap;html=1;sketch=0;strokeColor=#23445d;fillColor=#bac8d3;fontSize=18;align=center;" vertex="1" parent="YofYCnHRwfWKX3bDhyw9-35">
                    <mxGeometry width="140" height="90" as="geometry"/>
                </mxCell>
                <mxCell id="YofYCnHRwfWKX3bDhyw9-37" value="&lt;font style=&quot;font-size: 12px&quot;&gt;ชื่อสินค้า&lt;br&gt;ชื่อร้านค้า&lt;br&gt;ราคา 10,000 บาท&lt;br&gt;&lt;/font&gt;" style="rounded=0;whiteSpace=wrap;html=1;sketch=0;fillColor=#FFFFFF;fontSize=18;fontColor=#393C56;align=right;strokeColor=#000000;" vertex="1" parent="YofYCnHRwfWKX3bDhyw9-35">
                    <mxGeometry y="90" width="140" height="60" as="geometry"/>
                </mxCell>
                <mxCell id="YofYCnHRwfWKX3bDhyw9-38" value="" style="group" vertex="1" connectable="0" parent="YofYCnHRwfWKX3bDhyw9-31">
                    <mxGeometry x="320" width="140" height="150" as="geometry"/>
                </mxCell>
                <mxCell id="YofYCnHRwfWKX3bDhyw9-39" value="&lt;font color=&quot;#000000&quot;&gt;Img&lt;/font&gt;" style="rounded=0;whiteSpace=wrap;html=1;sketch=0;strokeColor=#23445d;fillColor=#bac8d3;fontSize=18;align=center;" vertex="1" parent="YofYCnHRwfWKX3bDhyw9-38">
                    <mxGeometry width="140" height="90" as="geometry"/>
                </mxCell>
                <mxCell id="YofYCnHRwfWKX3bDhyw9-40" value="&lt;font style=&quot;font-size: 12px&quot;&gt;ชื่อสินค้า&lt;br&gt;ชื่อร้านค้า&lt;br&gt;ราคา 10,000 บาท&lt;br&gt;&lt;/font&gt;" style="rounded=0;whiteSpace=wrap;html=1;sketch=0;fillColor=#FFFFFF;fontSize=18;fontColor=#393C56;align=right;strokeColor=#000000;" vertex="1" parent="YofYCnHRwfWKX3bDhyw9-38">
                    <mxGeometry y="90" width="140" height="60" as="geometry"/>
                </mxCell>
                <mxCell id="YofYCnHRwfWKX3bDhyw9-41" value="" style="group" vertex="1" connectable="0" parent="YofYCnHRwfWKX3bDhyw9-31">
                    <mxGeometry x="470" width="140" height="150" as="geometry"/>
                </mxCell>
                <mxCell id="YofYCnHRwfWKX3bDhyw9-42" value="&lt;font color=&quot;#000000&quot;&gt;Img&lt;/font&gt;" style="rounded=0;whiteSpace=wrap;html=1;sketch=0;strokeColor=#23445d;fillColor=#bac8d3;fontSize=18;align=center;" vertex="1" parent="YofYCnHRwfWKX3bDhyw9-41">
                    <mxGeometry width="140" height="90" as="geometry"/>
                </mxCell>
                <mxCell id="YofYCnHRwfWKX3bDhyw9-43" value="&lt;font style=&quot;font-size: 12px&quot;&gt;ชื่อสินค้า&lt;br&gt;ชื่อร้านค้า&lt;br&gt;ราคา 10,000 บาท&lt;br&gt;&lt;/font&gt;" style="rounded=0;whiteSpace=wrap;html=1;sketch=0;fillColor=#FFFFFF;fontSize=18;fontColor=#393C56;align=right;strokeColor=#000000;" vertex="1" parent="YofYCnHRwfWKX3bDhyw9-41">
                    <mxGeometry y="90" width="140" height="60" as="geometry"/>
                </mxCell>
                <mxCell id="YofYCnHRwfWKX3bDhyw9-44" value="" style="group" vertex="1" connectable="0" parent="r7LRQeCQxJZfCs1Y7XA6-24">
                    <mxGeometry x="30" y="590" width="610" height="150" as="geometry"/>
                </mxCell>
                <mxCell id="YofYCnHRwfWKX3bDhyw9-45" value="" style="group" vertex="1" connectable="0" parent="YofYCnHRwfWKX3bDhyw9-44">
                    <mxGeometry width="140" height="150" as="geometry"/>
                </mxCell>
                <mxCell id="YofYCnHRwfWKX3bDhyw9-46" value="&lt;font color=&quot;#000000&quot;&gt;Img&lt;/font&gt;" style="rounded=0;whiteSpace=wrap;html=1;sketch=0;strokeColor=#23445d;fillColor=#bac8d3;fontSize=18;align=center;" vertex="1" parent="YofYCnHRwfWKX3bDhyw9-45">
                    <mxGeometry width="140" height="90" as="geometry"/>
                </mxCell>
                <mxCell id="YofYCnHRwfWKX3bDhyw9-47" value="&lt;font style=&quot;font-size: 12px&quot;&gt;ชื่อสินค้า&lt;br&gt;ชื่อร้านค้า&lt;br&gt;ราคา 10,000 บาท&lt;br&gt;&lt;/font&gt;" style="rounded=0;whiteSpace=wrap;html=1;sketch=0;fillColor=#FFFFFF;fontSize=18;fontColor=#393C56;align=right;strokeColor=#000000;" vertex="1" parent="YofYCnHRwfWKX3bDhyw9-45">
                    <mxGeometry y="90" width="140" height="60" as="geometry"/>
                </mxCell>
                <mxCell id="YofYCnHRwfWKX3bDhyw9-48" value="" style="group" vertex="1" connectable="0" parent="YofYCnHRwfWKX3bDhyw9-44">
                    <mxGeometry x="160" width="140" height="150" as="geometry"/>
                </mxCell>
                <mxCell id="YofYCnHRwfWKX3bDhyw9-49" value="&lt;font color=&quot;#000000&quot;&gt;Img&lt;/font&gt;" style="rounded=0;whiteSpace=wrap;html=1;sketch=0;strokeColor=#23445d;fillColor=#bac8d3;fontSize=18;align=center;" vertex="1" parent="YofYCnHRwfWKX3bDhyw9-48">
                    <mxGeometry width="140" height="90" as="geometry"/>
                </mxCell>
                <mxCell id="YofYCnHRwfWKX3bDhyw9-50" value="&lt;font style=&quot;font-size: 12px&quot;&gt;ชื่อสินค้า&lt;br&gt;ชื่อร้านค้า&lt;br&gt;ราคา 10,000 บาท&lt;br&gt;&lt;/font&gt;" style="rounded=0;whiteSpace=wrap;html=1;sketch=0;fillColor=#FFFFFF;fontSize=18;fontColor=#393C56;align=right;strokeColor=#000000;" vertex="1" parent="YofYCnHRwfWKX3bDhyw9-48">
                    <mxGeometry y="90" width="140" height="60" as="geometry"/>
                </mxCell>
                <mxCell id="YofYCnHRwfWKX3bDhyw9-51" value="" style="group" vertex="1" connectable="0" parent="YofYCnHRwfWKX3bDhyw9-44">
                    <mxGeometry x="320" width="140" height="150" as="geometry"/>
                </mxCell>
                <mxCell id="YofYCnHRwfWKX3bDhyw9-52" value="&lt;font color=&quot;#000000&quot;&gt;Img&lt;/font&gt;" style="rounded=0;whiteSpace=wrap;html=1;sketch=0;strokeColor=#23445d;fillColor=#bac8d3;fontSize=18;align=center;" vertex="1" parent="YofYCnHRwfWKX3bDhyw9-51">
                    <mxGeometry width="140" height="90" as="geometry"/>
                </mxCell>
                <mxCell id="YofYCnHRwfWKX3bDhyw9-53" value="&lt;font style=&quot;font-size: 12px&quot;&gt;ชื่อสินค้า&lt;br&gt;ชื่อร้านค้า&lt;br&gt;ราคา 10,000 บาท&lt;br&gt;&lt;/font&gt;" style="rounded=0;whiteSpace=wrap;html=1;sketch=0;fillColor=#FFFFFF;fontSize=18;fontColor=#393C56;align=right;strokeColor=#000000;" vertex="1" parent="YofYCnHRwfWKX3bDhyw9-51">
                    <mxGeometry y="90" width="140" height="60" as="geometry"/>
                </mxCell>
                <mxCell id="YofYCnHRwfWKX3bDhyw9-54" value="" style="group" vertex="1" connectable="0" parent="YofYCnHRwfWKX3bDhyw9-44">
                    <mxGeometry x="470" width="140" height="150" as="geometry"/>
                </mxCell>
                <mxCell id="YofYCnHRwfWKX3bDhyw9-55" value="&lt;font color=&quot;#000000&quot;&gt;Img&lt;/font&gt;" style="rounded=0;whiteSpace=wrap;html=1;sketch=0;strokeColor=#23445d;fillColor=#bac8d3;fontSize=18;align=center;" vertex="1" parent="YofYCnHRwfWKX3bDhyw9-54">
                    <mxGeometry width="140" height="90" as="geometry"/>
                </mxCell>
                <mxCell id="YofYCnHRwfWKX3bDhyw9-56" value="&lt;font style=&quot;font-size: 12px&quot;&gt;ชื่อสินค้า&lt;br&gt;ชื่อร้านค้า&lt;br&gt;ราคา 10,000 บาท&lt;br&gt;&lt;/font&gt;" style="rounded=0;whiteSpace=wrap;html=1;sketch=0;fillColor=#FFFFFF;fontSize=18;fontColor=#393C56;align=right;strokeColor=#000000;" vertex="1" parent="YofYCnHRwfWKX3bDhyw9-54">
                    <mxGeometry y="90" width="140" height="60" as="geometry"/>
                </mxCell>
                <mxCell id="YofYCnHRwfWKX3bDhyw9-57" value="" style="group" vertex="1" connectable="0" parent="r7LRQeCQxJZfCs1Y7XA6-24">
                    <mxGeometry x="30" y="760" width="610" height="150" as="geometry"/>
                </mxCell>
                <mxCell id="YofYCnHRwfWKX3bDhyw9-58" value="" style="group" vertex="1" connectable="0" parent="YofYCnHRwfWKX3bDhyw9-57">
                    <mxGeometry width="140" height="150" as="geometry"/>
                </mxCell>
                <mxCell id="YofYCnHRwfWKX3bDhyw9-59" value="&lt;font color=&quot;#000000&quot;&gt;Img&lt;/font&gt;" style="rounded=0;whiteSpace=wrap;html=1;sketch=0;strokeColor=#23445d;fillColor=#bac8d3;fontSize=18;align=center;" vertex="1" parent="YofYCnHRwfWKX3bDhyw9-58">
                    <mxGeometry width="140" height="90" as="geometry"/>
                </mxCell>
                <mxCell id="YofYCnHRwfWKX3bDhyw9-60" value="&lt;font style=&quot;font-size: 12px&quot;&gt;ชื่อสินค้า&lt;br&gt;ชื่อร้านค้า&lt;br&gt;ราคา 10,000 บาท&lt;br&gt;&lt;/font&gt;" style="rounded=0;whiteSpace=wrap;html=1;sketch=0;fillColor=#FFFFFF;fontSize=18;fontColor=#393C56;align=right;strokeColor=#000000;" vertex="1" parent="YofYCnHRwfWKX3bDhyw9-58">
                    <mxGeometry y="90" width="140" height="60" as="geometry"/>
                </mxCell>
                <mxCell id="YofYCnHRwfWKX3bDhyw9-61" value="" style="group" vertex="1" connectable="0" parent="YofYCnHRwfWKX3bDhyw9-57">
                    <mxGeometry x="160" width="140" height="150" as="geometry"/>
                </mxCell>
                <mxCell id="YofYCnHRwfWKX3bDhyw9-62" value="&lt;font color=&quot;#000000&quot;&gt;Img&lt;/font&gt;" style="rounded=0;whiteSpace=wrap;html=1;sketch=0;strokeColor=#23445d;fillColor=#bac8d3;fontSize=18;align=center;" vertex="1" parent="YofYCnHRwfWKX3bDhyw9-61">
                    <mxGeometry width="140" height="90" as="geometry"/>
                </mxCell>
                <mxCell id="YofYCnHRwfWKX3bDhyw9-63" value="&lt;font style=&quot;font-size: 12px&quot;&gt;ชื่อสินค้า&lt;br&gt;ชื่อร้านค้า&lt;br&gt;ราคา 10,000 บาท&lt;br&gt;&lt;/font&gt;" style="rounded=0;whiteSpace=wrap;html=1;sketch=0;fillColor=#FFFFFF;fontSize=18;fontColor=#393C56;align=right;strokeColor=#000000;" vertex="1" parent="YofYCnHRwfWKX3bDhyw9-61">
                    <mxGeometry y="90" width="140" height="60" as="geometry"/>
                </mxCell>
                <mxCell id="YofYCnHRwfWKX3bDhyw9-64" value="" style="group" vertex="1" connectable="0" parent="YofYCnHRwfWKX3bDhyw9-57">
                    <mxGeometry x="320" width="140" height="150" as="geometry"/>
                </mxCell>
                <mxCell id="YofYCnHRwfWKX3bDhyw9-65" value="&lt;font color=&quot;#000000&quot;&gt;Img&lt;/font&gt;" style="rounded=0;whiteSpace=wrap;html=1;sketch=0;strokeColor=#23445d;fillColor=#bac8d3;fontSize=18;align=center;" vertex="1" parent="YofYCnHRwfWKX3bDhyw9-64">
                    <mxGeometry width="140" height="90" as="geometry"/>
                </mxCell>
                <mxCell id="YofYCnHRwfWKX3bDhyw9-66" value="&lt;font style=&quot;font-size: 12px&quot;&gt;ชื่อสินค้า&lt;br&gt;ชื่อร้านค้า&lt;br&gt;ราคา 10,000 บาท&lt;br&gt;&lt;/font&gt;" style="rounded=0;whiteSpace=wrap;html=1;sketch=0;fillColor=#FFFFFF;fontSize=18;fontColor=#393C56;align=right;strokeColor=#000000;" vertex="1" parent="YofYCnHRwfWKX3bDhyw9-64">
                    <mxGeometry y="90" width="140" height="60" as="geometry"/>
                </mxCell>
                <mxCell id="YofYCnHRwfWKX3bDhyw9-67" value="" style="group" vertex="1" connectable="0" parent="YofYCnHRwfWKX3bDhyw9-57">
                    <mxGeometry x="470" width="140" height="150" as="geometry"/>
                </mxCell>
                <mxCell id="YofYCnHRwfWKX3bDhyw9-68" value="&lt;font color=&quot;#000000&quot;&gt;Img&lt;/font&gt;" style="rounded=0;whiteSpace=wrap;html=1;sketch=0;strokeColor=#23445d;fillColor=#bac8d3;fontSize=18;align=center;" vertex="1" parent="YofYCnHRwfWKX3bDhyw9-67">
                    <mxGeometry width="140" height="90" as="geometry"/>
                </mxCell>
                <mxCell id="YofYCnHRwfWKX3bDhyw9-69" value="&lt;font style=&quot;font-size: 12px&quot;&gt;ชื่อสินค้า&lt;br&gt;ชื่อร้านค้า&lt;br&gt;ราคา 10,000 บาท&lt;br&gt;&lt;/font&gt;" style="rounded=0;whiteSpace=wrap;html=1;sketch=0;fillColor=#FFFFFF;fontSize=18;fontColor=#393C56;align=right;strokeColor=#000000;" vertex="1" parent="YofYCnHRwfWKX3bDhyw9-67">
                    <mxGeometry y="90" width="140" height="60" as="geometry"/>
                </mxCell>
                <mxCell id="YofYCnHRwfWKX3bDhyw9-70" value="" style="group" vertex="1" connectable="0" parent="r7LRQeCQxJZfCs1Y7XA6-24">
                    <mxGeometry x="30" y="930" width="610" height="150" as="geometry"/>
                </mxCell>
                <mxCell id="YofYCnHRwfWKX3bDhyw9-71" value="" style="group" vertex="1" connectable="0" parent="YofYCnHRwfWKX3bDhyw9-70">
                    <mxGeometry width="140" height="150" as="geometry"/>
                </mxCell>
                <mxCell id="YofYCnHRwfWKX3bDhyw9-72" value="&lt;font color=&quot;#000000&quot;&gt;Img&lt;/font&gt;" style="rounded=0;whiteSpace=wrap;html=1;sketch=0;strokeColor=#23445d;fillColor=#bac8d3;fontSize=18;align=center;" vertex="1" parent="YofYCnHRwfWKX3bDhyw9-71">
                    <mxGeometry width="140" height="90" as="geometry"/>
                </mxCell>
                <mxCell id="YofYCnHRwfWKX3bDhyw9-73" value="&lt;font style=&quot;font-size: 12px&quot;&gt;ชื่อสินค้า&lt;br&gt;ชื่อร้านค้า&lt;br&gt;ราคา 10,000 บาท&lt;br&gt;&lt;/font&gt;" style="rounded=0;whiteSpace=wrap;html=1;sketch=0;fillColor=#FFFFFF;fontSize=18;fontColor=#393C56;align=right;strokeColor=#000000;" vertex="1" parent="YofYCnHRwfWKX3bDhyw9-71">
                    <mxGeometry y="90" width="140" height="60" as="geometry"/>
                </mxCell>
                <mxCell id="YofYCnHRwfWKX3bDhyw9-74" value="" style="group" vertex="1" connectable="0" parent="YofYCnHRwfWKX3bDhyw9-70">
                    <mxGeometry x="160" width="140" height="150" as="geometry"/>
                </mxCell>
                <mxCell id="YofYCnHRwfWKX3bDhyw9-75" value="&lt;font color=&quot;#000000&quot;&gt;Img&lt;/font&gt;" style="rounded=0;whiteSpace=wrap;html=1;sketch=0;strokeColor=#23445d;fillColor=#bac8d3;fontSize=18;align=center;" vertex="1" parent="YofYCnHRwfWKX3bDhyw9-74">
                    <mxGeometry width="140" height="90" as="geometry"/>
                </mxCell>
                <mxCell id="YofYCnHRwfWKX3bDhyw9-76" value="&lt;font style=&quot;font-size: 12px&quot;&gt;ชื่อสินค้า&lt;br&gt;ชื่อร้านค้า&lt;br&gt;ราคา 10,000 บาท&lt;br&gt;&lt;/font&gt;" style="rounded=0;whiteSpace=wrap;html=1;sketch=0;fillColor=#FFFFFF;fontSize=18;fontColor=#393C56;align=right;strokeColor=#000000;" vertex="1" parent="YofYCnHRwfWKX3bDhyw9-74">
                    <mxGeometry y="90" width="140" height="60" as="geometry"/>
                </mxCell>
                <mxCell id="YofYCnHRwfWKX3bDhyw9-77" value="" style="group" vertex="1" connectable="0" parent="YofYCnHRwfWKX3bDhyw9-70">
                    <mxGeometry x="320" width="140" height="150" as="geometry"/>
                </mxCell>
                <mxCell id="YofYCnHRwfWKX3bDhyw9-78" value="&lt;font color=&quot;#000000&quot;&gt;Img&lt;/font&gt;" style="rounded=0;whiteSpace=wrap;html=1;sketch=0;strokeColor=#23445d;fillColor=#bac8d3;fontSize=18;align=center;" vertex="1" parent="YofYCnHRwfWKX3bDhyw9-77">
                    <mxGeometry width="140" height="90" as="geometry"/>
                </mxCell>
                <mxCell id="YofYCnHRwfWKX3bDhyw9-79" value="&lt;font style=&quot;font-size: 12px&quot;&gt;ชื่อสินค้า&lt;br&gt;ชื่อร้านค้า&lt;br&gt;ราคา 10,000 บาท&lt;br&gt;&lt;/font&gt;" style="rounded=0;whiteSpace=wrap;html=1;sketch=0;fillColor=#FFFFFF;fontSize=18;fontColor=#393C56;align=right;strokeColor=#000000;" vertex="1" parent="YofYCnHRwfWKX3bDhyw9-77">
                    <mxGeometry y="90" width="140" height="60" as="geometry"/>
                </mxCell>
                <mxCell id="YofYCnHRwfWKX3bDhyw9-80" value="" style="group" vertex="1" connectable="0" parent="YofYCnHRwfWKX3bDhyw9-70">
                    <mxGeometry x="470" width="140" height="150" as="geometry"/>
                </mxCell>
                <mxCell id="YofYCnHRwfWKX3bDhyw9-81" value="&lt;font color=&quot;#000000&quot;&gt;Img&lt;/font&gt;" style="rounded=0;whiteSpace=wrap;html=1;sketch=0;strokeColor=#23445d;fillColor=#bac8d3;fontSize=18;align=center;" vertex="1" parent="YofYCnHRwfWKX3bDhyw9-80">
                    <mxGeometry width="140" height="90" as="geometry"/>
                </mxCell>
                <mxCell id="YofYCnHRwfWKX3bDhyw9-82" value="&lt;font style=&quot;font-size: 12px&quot;&gt;ชื่อสินค้า&lt;br&gt;ชื่อร้านค้า&lt;br&gt;ราคา 10,000 บาท&lt;br&gt;&lt;/font&gt;" style="rounded=0;whiteSpace=wrap;html=1;sketch=0;fillColor=#FFFFFF;fontSize=18;fontColor=#393C56;align=right;strokeColor=#000000;" vertex="1" parent="YofYCnHRwfWKX3bDhyw9-80">
                    <mxGeometry y="90" width="140" height="60" as="geometry"/>
                </mxCell>
                <mxCell id="r7LRQeCQxJZfCs1Y7XA6-95" value="" style="html=1;shadow=0;dashed=0;shape=mxgraph.bootstrap.rrect;rSize=5;strokeColor=#DFDFDF;html=1;whiteSpace=wrap;fillColor=#FFFFFF;fontColor=#000000;rounded=0;sketch=0;align=left;" vertex="1" parent="V7ItCuovpPEUFhIJDj6l-1">
                    <mxGeometry x="-1030" y="580" width="270" height="120" as="geometry"/>
                </mxCell>
                <mxCell id="r7LRQeCQxJZfCs1Y7XA6-96" value="&lt;font color=&quot;#000000&quot;&gt;&lt;b&gt;ALL CATEGORY&lt;/b&gt;&lt;/font&gt;" style="html=1;shadow=0;dashed=0;shape=mxgraph.bootstrap.topButton;strokeColor=inherit;fillColor=#F7F7F7;rSize=5;perimeter=none;whiteSpace=wrap;resizeWidth=1;align=left;spacing=10;" vertex="1" parent="r7LRQeCQxJZfCs1Y7XA6-95">
                    <mxGeometry width="270" height="30" relative="1" as="geometry"/>
                </mxCell>
                <mxCell id="r7LRQeCQxJZfCs1Y7XA6-97" value="Category-1" style="strokeColor=inherit;fillColor=inherit;gradientColor=inherit;fontColor=inherit;html=1;shadow=0;dashed=0;perimeter=none;whiteSpace=wrap;resizeWidth=1;align=left;spacing=10;" vertex="1" parent="r7LRQeCQxJZfCs1Y7XA6-95">
                    <mxGeometry width="270" height="30" relative="1" as="geometry">
                        <mxPoint y="30" as="offset"/>
                    </mxGeometry>
                </mxCell>
                <mxCell id="r7LRQeCQxJZfCs1Y7XA6-98" value="Category-2" style="strokeColor=inherit;fillColor=inherit;gradientColor=inherit;fontColor=inherit;html=1;shadow=0;dashed=0;perimeter=none;whiteSpace=wrap;resizeWidth=1;align=left;spacing=10;" vertex="1" parent="r7LRQeCQxJZfCs1Y7XA6-95">
                    <mxGeometry width="270" height="30" relative="1" as="geometry">
                        <mxPoint y="60" as="offset"/>
                    </mxGeometry>
                </mxCell>
                <mxCell id="r7LRQeCQxJZfCs1Y7XA6-99" value="Category-3" style="strokeColor=inherit;fillColor=inherit;gradientColor=inherit;fontColor=inherit;html=1;shadow=0;dashed=0;shape=mxgraph.bootstrap.bottomButton;rSize=5;perimeter=none;whiteSpace=wrap;resizeWidth=1;resizeHeight=0;align=left;spacing=10;" vertex="1" parent="r7LRQeCQxJZfCs1Y7XA6-95">
                    <mxGeometry y="1" width="270" height="30" relative="1" as="geometry">
                        <mxPoint y="-30" as="offset"/>
                    </mxGeometry>
                </mxCell>
                <mxCell id="r7LRQeCQxJZfCs1Y7XA6-109" value="Category-4" style="strokeColor=inherit;fillColor=inherit;gradientColor=inherit;fontColor=inherit;html=1;shadow=0;dashed=0;shape=mxgraph.bootstrap.bottomButton;rSize=5;perimeter=none;whiteSpace=wrap;resizeWidth=1;resizeHeight=0;align=left;spacing=10;" vertex="1" parent="r7LRQeCQxJZfCs1Y7XA6-95">
                    <mxGeometry y="1" width="270" height="30" relative="1" as="geometry">
                        <mxPoint as="offset"/>
                    </mxGeometry>
                </mxCell>
                <mxCell id="r7LRQeCQxJZfCs1Y7XA6-110" value="Category-5" style="strokeColor=inherit;fillColor=inherit;gradientColor=inherit;fontColor=inherit;html=1;shadow=0;dashed=0;shape=mxgraph.bootstrap.bottomButton;rSize=5;perimeter=none;whiteSpace=wrap;resizeWidth=1;resizeHeight=0;align=left;spacing=10;" vertex="1" parent="r7LRQeCQxJZfCs1Y7XA6-95">
                    <mxGeometry y="1" width="270" height="30" relative="1" as="geometry">
                        <mxPoint y="30" as="offset"/>
                    </mxGeometry>
                </mxCell>
                <mxCell id="r7LRQeCQxJZfCs1Y7XA6-111" value="Category-6" style="strokeColor=inherit;fillColor=inherit;gradientColor=inherit;fontColor=inherit;html=1;shadow=0;dashed=0;shape=mxgraph.bootstrap.bottomButton;rSize=5;perimeter=none;whiteSpace=wrap;resizeWidth=1;resizeHeight=0;align=left;spacing=10;" vertex="1" parent="r7LRQeCQxJZfCs1Y7XA6-95">
                    <mxGeometry y="1" width="270" height="30" relative="1" as="geometry">
                        <mxPoint y="60" as="offset"/>
                    </mxGeometry>
                </mxCell>
                <mxCell id="ZrRFQUzL8nEZasykLbkx-4" style="edgeStyle=orthogonalEdgeStyle;curved=0;rounded=1;sketch=0;orthogonalLoop=1;jettySize=auto;html=1;exitX=1;exitY=0.5;exitDx=0;exitDy=0;entryX=0;entryY=0.5;entryDx=0;entryDy=0;startArrow=classic;startFill=1;endArrow=none;endFill=0;strokeColor=#E07A5F;fillColor=#F2CC8F;fontSize=18;fontColor=#393C56;" edge="1" parent="V7ItCuovpPEUFhIJDj6l-1" source="ZrRFQUzL8nEZasykLbkx-3" target="jlBztP9HJ9qdyP_1mLeQ-21">
                    <mxGeometry relative="1" as="geometry"/>
                </mxCell>
                <mxCell id="ZrRFQUzL8nEZasykLbkx-3" value="3" style="ellipse;whiteSpace=wrap;html=1;aspect=fixed;rounded=0;sketch=0;strokeColor=#E07A5F;fillColor=#FFFFFF;fontSize=18;fontColor=#393C56;align=center;" vertex="1" parent="V7ItCuovpPEUFhIJDj6l-1">
                    <mxGeometry x="290" y="530" width="30" height="30" as="geometry"/>
                </mxCell>
                <mxCell id="ZrRFQUzL8nEZasykLbkx-6" style="edgeStyle=orthogonalEdgeStyle;curved=0;rounded=1;sketch=0;orthogonalLoop=1;jettySize=auto;html=1;entryX=1;entryY=0.5;entryDx=0;entryDy=0;startArrow=classic;startFill=1;endArrow=none;endFill=0;strokeColor=#E07A5F;fillColor=#F2CC8F;fontSize=18;fontColor=#393C56;" edge="1" parent="V7ItCuovpPEUFhIJDj6l-1" source="ZrRFQUzL8nEZasykLbkx-5" target="jlBztP9HJ9qdyP_1mLeQ-22">
                    <mxGeometry relative="1" as="geometry"/>
                </mxCell>
                <mxCell id="ZrRFQUzL8nEZasykLbkx-5" value="4" style="ellipse;whiteSpace=wrap;html=1;aspect=fixed;rounded=0;sketch=0;strokeColor=#E07A5F;fillColor=#FFFFFF;fontSize=18;fontColor=#393C56;align=center;" vertex="1" parent="V7ItCuovpPEUFhIJDj6l-1">
                    <mxGeometry x="740" y="530" width="30" height="30" as="geometry"/>
                </mxCell>
                <mxCell id="EBjXDyC0AjNq8hZx2zcO-0" value="" style="group" vertex="1" connectable="0" parent="V7ItCuovpPEUFhIJDj6l-1">
                    <mxGeometry x="-1050" y="70" width="1000" height="180" as="geometry"/>
                </mxCell>
                <mxCell id="r7LRQeCQxJZfCs1Y7XA6-7" value="" style="rounded=0;whiteSpace=wrap;html=1;sketch=0;fillColor=#f5f5f5;fontSize=18;align=left;fontColor=#333333;strokeColor=none;" vertex="1" parent="EBjXDyC0AjNq8hZx2zcO-0">
                    <mxGeometry width="1000" height="180" as="geometry"/>
                </mxCell>
                <object label="Log In/Logout" id="r7LRQeCQxJZfCs1Y7XA6-1">
                    <mxCell style="text;html=1;strokeColor=none;fillColor=none;align=center;verticalAlign=middle;whiteSpace=wrap;rounded=0;sketch=0;fontSize=18;fontColor=#393C56;" vertex="1" parent="EBjXDyC0AjNq8hZx2zcO-0">
                        <mxGeometry x="827.5" y="140" width="125" height="20" as="geometry"/>
                    </mxCell>
                </object>
                <mxCell id="r7LRQeCQxJZfCs1Y7XA6-2" value="Logo" style="ellipse;whiteSpace=wrap;html=1;aspect=fixed;rounded=0;sketch=0;strokeColor=#E07A5F;fillColor=#FFFFFF;fontSize=18;fontColor=#393C56;align=center;" vertex="1" parent="EBjXDyC0AjNq8hZx2zcO-0">
                    <mxGeometry x="70" y="60" width="80" height="80" as="geometry"/>
                </mxCell>
                <mxCell id="r7LRQeCQxJZfCs1Y7XA6-3" value="Search" style="strokeWidth=1;shadow=0;dashed=0;align=center;html=1;shape=mxgraph.mockup.forms.searchBox;strokeColor=#999999;mainText=;strokeColor2=#008cff;fontColor=#666666;fontSize=17;align=left;spacingLeft=3;rounded=0;sketch=0;fillColor=#FFFFFF;" vertex="1" parent="EBjXDyC0AjNq8hZx2zcO-0">
                    <mxGeometry x="200" y="80" width="580" height="45" as="geometry"/>
                </mxCell>
                <mxCell id="r7LRQeCQxJZfCs1Y7XA6-4" value="" style="verticalLabelPosition=bottom;shadow=0;dashed=0;align=center;html=1;verticalAlign=top;strokeWidth=1;shape=mxgraph.mockup.misc.shoppingCart;strokeColor=#999999;rounded=0;sketch=0;fillColor=#FFFFFF;fontSize=18;fontColor=#393C56;" vertex="1" parent="EBjXDyC0AjNq8hZx2zcO-0">
                    <mxGeometry x="810" y="75" width="50" height="50" as="geometry"/>
                </mxCell>
                <mxCell id="r7LRQeCQxJZfCs1Y7XA6-6" value="" style="shape=actor;whiteSpace=wrap;html=1;rounded=0;sketch=0;strokeColor=#E07A5F;fillColor=#FFFFFF;fontSize=18;fontColor=#393C56;align=left;" vertex="1" parent="EBjXDyC0AjNq8hZx2zcO-0">
                    <mxGeometry x="870" y="80" width="40" height="47.5" as="geometry"/>
                </mxCell>
                <object label="Name" id="r7LRQeCQxJZfCs1Y7XA6-8">
                    <mxCell style="text;html=1;strokeColor=none;fillColor=none;align=center;verticalAlign=middle;whiteSpace=wrap;rounded=0;sketch=0;fontSize=18;fontColor=#393C56;" vertex="1" parent="EBjXDyC0AjNq8hZx2zcO-0">
                        <mxGeometry x="920" y="100" width="70" height="20" as="geometry"/>
                    </mxCell>
                </object>
                <mxCell id="EBjXDyC0AjNq8hZx2zcO-9" value="Home" style="strokeWidth=1;shadow=0;dashed=0;align=center;html=1;shape=mxgraph.mockup.navigation.anchor;fontSize=17;fontColor=#666666;fontStyle=1;rounded=0;sketch=0;fillColor=#FFFFFF;" vertex="1" parent="V7ItCuovpPEUFhIJDj6l-1">
                    <mxGeometry x="70" y="1470" width="60" height="30" as="geometry"/>
                </mxCell>
                <mxCell id="EBjXDyC0AjNq8hZx2zcO-10" value="&gt;" style="strokeWidth=1;shadow=0;dashed=0;align=center;html=1;shape=mxgraph.mockup.navigation.anchor;fontSize=24;fontColor=#aaaaaa;fontStyle=1;rounded=0;sketch=0;fillColor=#FFFFFF;" vertex="1" parent="V7ItCuovpPEUFhIJDj6l-1">
                    <mxGeometry x="130" y="1470" width="20" height="30" as="geometry"/>
                </mxCell>
                <mxCell id="EBjXDyC0AjNq8hZx2zcO-11" value="Category1" style="strokeWidth=1;shadow=0;dashed=0;align=center;html=1;shape=mxgraph.mockup.navigation.anchor;fontSize=17;fontColor=#666666;fontStyle=1;rounded=0;sketch=0;fillColor=#FFFFFF;" vertex="1" parent="V7ItCuovpPEUFhIJDj6l-1">
                    <mxGeometry x="150" y="1470" width="90" height="30" as="geometry"/>
                </mxCell>
                <mxCell id="EBjXDyC0AjNq8hZx2zcO-12" value="&gt;" style="strokeWidth=1;shadow=0;dashed=0;align=center;html=1;shape=mxgraph.mockup.navigation.anchor;fontSize=24;fontColor=#aaaaaa;fontStyle=1;rounded=0;sketch=0;fillColor=#FFFFFF;" vertex="1" parent="V7ItCuovpPEUFhIJDj6l-1">
                    <mxGeometry x="240" y="1470" width="20" height="30" as="geometry"/>
                </mxCell>
                <mxCell id="EBjXDyC0AjNq8hZx2zcO-15" value="ProductA" style="strokeWidth=1;shadow=0;dashed=0;align=center;html=1;shape=mxgraph.mockup.navigation.anchor;fontSize=17;fontColor=#008cff;fontStyle=1;rounded=0;sketch=0;fillColor=#FFFFFF;" vertex="1" parent="V7ItCuovpPEUFhIJDj6l-1">
                    <mxGeometry x="275" y="1470" width="60" height="30" as="geometry"/>
                </mxCell>
                <mxCell id="EBjXDyC0AjNq8hZx2zcO-16" value="" style="rounded=0;whiteSpace=wrap;html=1;sketch=0;fillColor=#f5f5f5;fontSize=18;align=left;fontColor=#333333;strokeColor=none;" vertex="1" parent="V7ItCuovpPEUFhIJDj6l-1">
                    <mxGeometry x="40" y="1530" width="1000" height="430" as="geometry"/>
                </mxCell>
                <mxCell id="EBjXDyC0AjNq8hZx2zcO-17" value="&lt;font style=&quot;font-size: 24px&quot; color=&quot;#000000&quot;&gt;Img&lt;/font&gt;" style="rounded=0;whiteSpace=wrap;html=1;sketch=0;strokeColor=#23445d;fillColor=#bac8d3;fontSize=18;align=center;" vertex="1" parent="V7ItCuovpPEUFhIJDj6l-1">
                    <mxGeometry x="110" y="1570" width="310" height="210" as="geometry"/>
                </mxCell>
                <mxCell id="EBjXDyC0AjNq8hZx2zcO-18" value="&lt;font style=&quot;font-size: 24px&quot; color=&quot;#000000&quot;&gt;Img&lt;/font&gt;" style="rounded=0;whiteSpace=wrap;html=1;sketch=0;strokeColor=#23445d;fillColor=#bac8d3;fontSize=18;align=center;" vertex="1" parent="V7ItCuovpPEUFhIJDj6l-1">
                    <mxGeometry x="130" y="1800" width="80" height="70" as="geometry"/>
                </mxCell>
                <mxCell id="EBjXDyC0AjNq8hZx2zcO-19" value="&lt;font style=&quot;font-size: 24px&quot; color=&quot;#000000&quot;&gt;Img&lt;/font&gt;" style="rounded=0;whiteSpace=wrap;html=1;sketch=0;strokeColor=#23445d;fillColor=#bac8d3;fontSize=18;align=center;" vertex="1" parent="V7ItCuovpPEUFhIJDj6l-1">
                    <mxGeometry x="230" y="1800" width="80" height="70" as="geometry"/>
                </mxCell>
                <mxCell id="EBjXDyC0AjNq8hZx2zcO-20" value="&lt;font style=&quot;font-size: 24px&quot; color=&quot;#000000&quot;&gt;Img&lt;/font&gt;" style="rounded=0;whiteSpace=wrap;html=1;sketch=0;strokeColor=#23445d;fillColor=#bac8d3;fontSize=18;align=center;" vertex="1" parent="V7ItCuovpPEUFhIJDj6l-1">
                    <mxGeometry x="330" y="1800" width="80" height="70" as="geometry"/>
                </mxCell>
                <mxCell id="EBjXDyC0AjNq8hZx2zcO-21" value="" style="triangle;whiteSpace=wrap;html=1;rounded=0;sketch=0;strokeColor=#000000;fillColor=#FFFFFF;fontSize=18;fontColor=#393C56;align=left;" vertex="1" parent="V7ItCuovpPEUFhIJDj6l-1">
                    <mxGeometry x="420" y="1802.5" width="30" height="65" as="geometry"/>
                </mxCell>
                <mxCell id="EBjXDyC0AjNq8hZx2zcO-22" value="" style="triangle;whiteSpace=wrap;html=1;rounded=0;sketch=0;strokeColor=#000000;fillColor=#FFFFFF;fontSize=18;fontColor=#393C56;align=left;rotation=-180;" vertex="1" parent="V7ItCuovpPEUFhIJDj6l-1">
                    <mxGeometry x="90" y="1800" width="30" height="65" as="geometry"/>
                </mxCell>
                <mxCell id="EBjXDyC0AjNq8hZx2zcO-28" value="" style="group" vertex="1" connectable="0" parent="V7ItCuovpPEUFhIJDj6l-1">
                    <mxGeometry x="70" y="1980" width="920" height="270" as="geometry"/>
                </mxCell>
                <mxCell id="EBjXDyC0AjNq8hZx2zcO-23" value="รายละเอียด" style="html=1;shadow=0;dashed=0;shape=mxgraph.bootstrap.tabTop;strokeColor=#DFDFDF;fillColor=#ffffff;rSize=5;perimeter=none;whiteSpace=wrap;resizeWidth=1;align=center;spacing=20;fontSize=14;fontColor=#4B5259;rounded=0;sketch=0;" vertex="1" parent="EBjXDyC0AjNq8hZx2zcO-28">
                    <mxGeometry width="130" height="40" as="geometry"/>
                </mxCell>
                <mxCell id="EBjXDyC0AjNq8hZx2zcO-24" value="รีวิว" style="strokeColor=none;fillColor=none;rSize=5;perimeter=none;whiteSpace=wrap;resizeWidth=1;align=center;spacing=20;fontSize=14;fontColor=#0085FC;rounded=0;sketch=0;" vertex="1" parent="EBjXDyC0AjNq8hZx2zcO-28">
                    <mxGeometry x="130" width="90" height="40" as="geometry"/>
                </mxCell>
                <mxCell id="EBjXDyC0AjNq8hZx2zcO-26" value="" style="shape=line;strokeColor=#dddddd;rounded=0;sketch=0;fillColor=#FFFFFF;fontSize=18;fontColor=#393C56;align=left;" vertex="1" parent="EBjXDyC0AjNq8hZx2zcO-28">
                    <mxGeometry y="35" width="920" height="10" as="geometry"/>
                </mxCell>
                <mxCell id="EBjXDyC0AjNq8hZx2zcO-27" value="&lt;font color=&quot;#000000&quot;&gt;Raw denim you probably haven't heard of them jean shorts Austin. Nesciunt tofu stumptown aliqua, retro synth master cleanse. Mustache cliche tempor, williamsburg carles vegan helvetica. Reprehenderit butcher retro keffiyeh dreamcatcher synth. Cosby sweater eu banh mi, qui irure terry richardson ex squid. Aliquip placeat salvia cillum iphone. Seitan aliquip quis cardigan american apparel, butcher voluptate nisi qui.&lt;br&gt;&lt;/font&gt;&lt;span style=&quot;color: rgb(0 , 0 , 0)&quot;&gt;Raw denim you probably haven't heard of them jean shorts Austin. Nesciunt tofu stumptown aliqua, retro synth master cleanse. Mustache cliche tempor, williamsburg carles vegan helvetica. Reprehenderit butcher retro keffiyeh dreamcatcher synth. Cosby sweater eu banh mi, qui irure terry richardson ex squid. Aliquip placeat salvia cillum iphone. Seitan aliquip quis cardigan american apparel, butcher voluptate nisi qui.&lt;/span&gt;&lt;font color=&quot;#000000&quot;&gt;&lt;br&gt;&lt;/font&gt;" style="strokeColor=none;fillColor=none;whiteSpace=wrap;html=1;align=left;verticalAlign=top;fontSize=14;rounded=0;sketch=0;" vertex="1" parent="EBjXDyC0AjNq8hZx2zcO-28">
                    <mxGeometry y="55" width="920" height="215" as="geometry"/>
                </mxCell>
                <mxCell id="EBjXDyC0AjNq8hZx2zcO-30" value="&lt;font style=&quot;font-size: 30px&quot;&gt;&lt;b&gt;ชื่อสินค้า xxxxxxxxxxxxxxxxxxxx&lt;/b&gt;&lt;/font&gt;" style="text;html=1;strokeColor=none;fillColor=none;align=center;verticalAlign=middle;whiteSpace=wrap;rounded=0;sketch=0;fontSize=18;fontColor=#393C56;" vertex="1" parent="V7ItCuovpPEUFhIJDj6l-1">
                    <mxGeometry x="470" y="1560" width="480" height="100" as="geometry"/>
                </mxCell>
                <mxCell id="EBjXDyC0AjNq8hZx2zcO-31" value="&lt;font size=&quot;1&quot;&gt;&lt;b style=&quot;font-size: 35px&quot;&gt;ราคา 10,000 บาท&lt;/b&gt;&lt;/font&gt;" style="text;html=1;strokeColor=none;fillColor=none;align=left;verticalAlign=middle;whiteSpace=wrap;rounded=0;sketch=0;fontSize=18;fontColor=#393C56;" vertex="1" parent="V7ItCuovpPEUFhIJDj6l-1">
                    <mxGeometry x="490" y="1640" width="480" height="100" as="geometry"/>
                </mxCell>
                <mxCell id="7RRr_ebmiQOzfgmXOCdE-3" value="" style="group" vertex="1" connectable="0" parent="V7ItCuovpPEUFhIJDj6l-1">
                    <mxGeometry x="490" y="1810" width="220" height="60" as="geometry"/>
                </mxCell>
                <mxCell id="7RRr_ebmiQOzfgmXOCdE-1" value="ADD To Cart" style="rounded=0;whiteSpace=wrap;html=1;sketch=0;strokeColor=#666666;fillColor=#f5f5f5;fontSize=18;align=center;fontColor=#333333;" vertex="1" parent="7RRr_ebmiQOzfgmXOCdE-3">
                    <mxGeometry width="220" height="60" as="geometry"/>
                </mxCell>
                <mxCell id="7RRr_ebmiQOzfgmXOCdE-2" value="" style="verticalLabelPosition=bottom;shadow=0;dashed=0;align=center;html=1;verticalAlign=top;strokeWidth=1;shape=mxgraph.mockup.misc.shoppingCart;strokeColor=#999999;rounded=0;sketch=0;fillColor=#FFFFFF;fontSize=18;fontColor=#393C56;" vertex="1" parent="7RRr_ebmiQOzfgmXOCdE-3">
                    <mxGeometry x="20" y="10" width="40" height="40" as="geometry"/>
                </mxCell>
                <mxCell id="7RRr_ebmiQOzfgmXOCdE-4" value="จำหน่ายโดย ชื่อร้านค้า" style="text;html=1;strokeColor=none;fillColor=none;align=left;verticalAlign=middle;whiteSpace=wrap;rounded=0;sketch=0;fontSize=18;fontColor=#393C56;" vertex="1" parent="V7ItCuovpPEUFhIJDj6l-1">
                    <mxGeometry x="490" y="1720" width="200" height="30" as="geometry"/>
                </mxCell>
                <mxCell id="7RRr_ebmiQOzfgmXOCdE-5" value="จำนวน" style="text;html=1;strokeColor=none;fillColor=none;align=left;verticalAlign=middle;whiteSpace=wrap;rounded=0;sketch=0;fontSize=18;fontColor=#393C56;" vertex="1" parent="V7ItCuovpPEUFhIJDj6l-1">
                    <mxGeometry x="490" y="1760" width="70" height="30" as="geometry"/>
                </mxCell>
                <mxCell id="7RRr_ebmiQOzfgmXOCdE-13" value="" style="group" vertex="1" connectable="0" parent="V7ItCuovpPEUFhIJDj6l-1">
                    <mxGeometry x="-1050" y="1810" width="1000" height="240" as="geometry"/>
                </mxCell>
                <mxCell id="r7LRQeCQxJZfCs1Y7XA6-183" value="" style="rounded=0;whiteSpace=wrap;html=1;sketch=0;fillColor=#f5f5f5;fontSize=18;fontColor=#333333;align=left;strokeColor=none;" vertex="1" parent="7RRr_ebmiQOzfgmXOCdE-13">
                    <mxGeometry width="1000" height="240" as="geometry"/>
                </mxCell>
                <mxCell id="r7LRQeCQxJZfCs1Y7XA6-184" value="copy 2021 merchant.AlL Rights Reserved" style="text;html=1;strokeColor=none;fillColor=none;align=center;verticalAlign=middle;whiteSpace=wrap;rounded=0;sketch=0;fontSize=18;fontColor=#393C56;" vertex="1" parent="7RRr_ebmiQOzfgmXOCdE-13">
                    <mxGeometry x="300" y="210" width="400" height="20" as="geometry"/>
                </mxCell>
                <mxCell id="r7LRQeCQxJZfCs1Y7XA6-185" value="MERCHANT MANAGEMENT" style="text;html=1;strokeColor=none;fillColor=none;align=center;verticalAlign=middle;whiteSpace=wrap;rounded=0;sketch=0;fontSize=18;fontColor=#393C56;" vertex="1" parent="7RRr_ebmiQOzfgmXOCdE-13">
                    <mxGeometry x="690" y="30" width="280" height="20" as="geometry"/>
                </mxCell>
                <mxCell id="ZrRFQUzL8nEZasykLbkx-0" value="-Merchant Login" style="text;html=1;strokeColor=none;fillColor=none;align=center;verticalAlign=middle;whiteSpace=wrap;rounded=0;sketch=0;fontSize=18;fontColor=#393C56;" vertex="1" parent="7RRr_ebmiQOzfgmXOCdE-13">
                    <mxGeometry x="720" y="70" width="180" height="20" as="geometry"/>
                </mxCell>
                <mxCell id="ZrRFQUzL8nEZasykLbkx-2" style="edgeStyle=orthogonalEdgeStyle;curved=0;rounded=1;sketch=0;orthogonalLoop=1;jettySize=auto;html=1;entryX=1;entryY=0.5;entryDx=0;entryDy=0;startArrow=classic;startFill=1;endArrow=none;endFill=0;strokeColor=#E07A5F;fillColor=#F2CC8F;fontSize=18;fontColor=#393C56;" edge="1" parent="7RRr_ebmiQOzfgmXOCdE-13" source="ZrRFQUzL8nEZasykLbkx-1" target="ZrRFQUzL8nEZasykLbkx-0">
                    <mxGeometry relative="1" as="geometry"/>
                </mxCell>
                <mxCell id="ZrRFQUzL8nEZasykLbkx-1" value="2" style="ellipse;whiteSpace=wrap;html=1;aspect=fixed;rounded=0;sketch=0;strokeColor=#E07A5F;fillColor=#FFFFFF;fontSize=18;fontColor=#393C56;align=center;" vertex="1" parent="7RRr_ebmiQOzfgmXOCdE-13">
                    <mxGeometry x="940" y="65" width="30" height="30" as="geometry"/>
                </mxCell>
                <mxCell id="7RRr_ebmiQOzfgmXOCdE-14" value="" style="group" vertex="1" connectable="0" parent="V7ItCuovpPEUFhIJDj6l-1">
                    <mxGeometry x="40" y="2270" width="1000" height="240" as="geometry"/>
                </mxCell>
                <mxCell id="7RRr_ebmiQOzfgmXOCdE-15" value="" style="rounded=0;whiteSpace=wrap;html=1;sketch=0;fillColor=#f5f5f5;fontSize=18;fontColor=#333333;align=left;strokeColor=none;" vertex="1" parent="7RRr_ebmiQOzfgmXOCdE-14">
                    <mxGeometry width="1000" height="240" as="geometry"/>
                </mxCell>
                <mxCell id="7RRr_ebmiQOzfgmXOCdE-16" value="copy 2021 merchant.AlL Rights Reserved" style="text;html=1;strokeColor=none;fillColor=none;align=center;verticalAlign=middle;whiteSpace=wrap;rounded=0;sketch=0;fontSize=18;fontColor=#393C56;" vertex="1" parent="7RRr_ebmiQOzfgmXOCdE-14">
                    <mxGeometry x="300" y="210" width="400" height="20" as="geometry"/>
                </mxCell>
                <mxCell id="7RRr_ebmiQOzfgmXOCdE-17" value="MERCHANT MANAGEMENT" style="text;html=1;strokeColor=none;fillColor=none;align=center;verticalAlign=middle;whiteSpace=wrap;rounded=0;sketch=0;fontSize=18;fontColor=#393C56;" vertex="1" parent="7RRr_ebmiQOzfgmXOCdE-14">
                    <mxGeometry x="690" y="30" width="280" height="20" as="geometry"/>
                </mxCell>
                <mxCell id="7RRr_ebmiQOzfgmXOCdE-18" value="-Merchant Login" style="text;html=1;strokeColor=none;fillColor=none;align=center;verticalAlign=middle;whiteSpace=wrap;rounded=0;sketch=0;fontSize=18;fontColor=#393C56;" vertex="1" parent="7RRr_ebmiQOzfgmXOCdE-14">
                    <mxGeometry x="720" y="70" width="180" height="20" as="geometry"/>
                </mxCell>
                <mxCell id="7RRr_ebmiQOzfgmXOCdE-19" style="edgeStyle=orthogonalEdgeStyle;curved=0;rounded=1;sketch=0;orthogonalLoop=1;jettySize=auto;html=1;entryX=1;entryY=0.5;entryDx=0;entryDy=0;startArrow=classic;startFill=1;endArrow=none;endFill=0;strokeColor=#E07A5F;fillColor=#F2CC8F;fontSize=18;fontColor=#393C56;" edge="1" parent="7RRr_ebmiQOzfgmXOCdE-14" source="7RRr_ebmiQOzfgmXOCdE-20" target="7RRr_ebmiQOzfgmXOCdE-18">
                    <mxGeometry relative="1" as="geometry"/>
                </mxCell>
                <mxCell id="7RRr_ebmiQOzfgmXOCdE-20" value="2" style="ellipse;whiteSpace=wrap;html=1;aspect=fixed;rounded=0;sketch=0;strokeColor=#E07A5F;fillColor=#FFFFFF;fontSize=18;fontColor=#393C56;align=center;" vertex="1" parent="7RRr_ebmiQOzfgmXOCdE-14">
                    <mxGeometry x="940" y="65" width="30" height="30" as="geometry"/>
                </mxCell>
                <mxCell id="7RRr_ebmiQOzfgmXOCdE-22" style="edgeStyle=orthogonalEdgeStyle;curved=0;rounded=1;sketch=0;orthogonalLoop=1;jettySize=auto;html=1;entryX=0;entryY=0.75;entryDx=0;entryDy=0;startArrow=classic;startFill=1;endArrow=none;endFill=0;strokeColor=#E07A5F;fillColor=#F2CC8F;fontSize=18;fontColor=#393C56;" edge="1" parent="V7ItCuovpPEUFhIJDj6l-1" source="7RRr_ebmiQOzfgmXOCdE-21" target="YofYCnHRwfWKX3bDhyw9-72">
                    <mxGeometry relative="1" as="geometry"/>
                </mxCell>
                <mxCell id="7RRr_ebmiQOzfgmXOCdE-21" value="5" style="ellipse;whiteSpace=wrap;html=1;aspect=fixed;rounded=0;sketch=0;strokeColor=#E07A5F;fillColor=#FFFFFF;fontSize=18;fontColor=#393C56;align=center;" vertex="1" parent="V7ItCuovpPEUFhIJDj6l-1">
                    <mxGeometry x="-850" y="1520" width="30" height="30" as="geometry"/>
                </mxCell>
                <mxCell id="7RRr_ebmiQOzfgmXOCdE-74" value="-" style="rounded=0;whiteSpace=wrap;html=1;sketch=0;strokeColor=#000000;fillColor=#FFFFFF;fontSize=18;fontColor=#393C56;align=center;" vertex="1" parent="V7ItCuovpPEUFhIJDj6l-1">
                    <mxGeometry x="569.9999999999999" y="1760" width="30.088235294117645" height="30" as="geometry"/>
                </mxCell>
                <mxCell id="7RRr_ebmiQOzfgmXOCdE-75" value="1" style="rounded=0;whiteSpace=wrap;html=1;sketch=0;strokeColor=#000000;fillColor=#FFFFFF;fontSize=18;fontColor=#393C56;align=center;" vertex="1" parent="V7ItCuovpPEUFhIJDj6l-1">
                    <mxGeometry x="600.0882352941176" y="1760" width="67.6985294117647" height="30" as="geometry"/>
                </mxCell>
                <mxCell id="7RRr_ebmiQOzfgmXOCdE-76" value="+" style="rounded=0;whiteSpace=wrap;html=1;sketch=0;strokeColor=#000000;fillColor=#FFFFFF;fontSize=18;fontColor=#393C56;align=center;" vertex="1" parent="V7ItCuovpPEUFhIJDj6l-1">
                    <mxGeometry x="667.7867647058822" y="1760" width="30.088235294117645" height="30" as="geometry"/>
                </mxCell>
                <mxCell id="7RRr_ebmiQOzfgmXOCdE-121" value="" style="group" vertex="1" connectable="0" parent="V7ItCuovpPEUFhIJDj6l-1">
                    <mxGeometry x="1160" y="1550" width="950" height="140" as="geometry"/>
                </mxCell>
                <mxCell id="7RRr_ebmiQOzfgmXOCdE-61" value="" style="html=1;shadow=0;dashed=0;shape=mxgraph.bootstrap.rrect;rSize=5;strokeColor=#DFDFDF;html=1;whiteSpace=wrap;fillColor=#FFFFFF;fontColor=#000000;rounded=0;sketch=0;align=left;container=0;" vertex="1" parent="7RRr_ebmiQOzfgmXOCdE-121">
                    <mxGeometry width="950" height="140" as="geometry"/>
                </mxCell>
                <mxCell id="7RRr_ebmiQOzfgmXOCdE-62" value="&lt;font color=&quot;#000000&quot;&gt;&amp;nbsp; &amp;nbsp; ชื่อร้านค้า&lt;/font&gt;" style="html=1;shadow=0;dashed=0;shape=mxgraph.bootstrap.topButton;strokeColor=inherit;fillColor=#F7F7F7;rSize=5;perimeter=none;whiteSpace=wrap;resizeWidth=1;align=left;spacing=20;fontSize=14;" vertex="1" parent="7RRr_ebmiQOzfgmXOCdE-121">
                    <mxGeometry width="950" height="40" as="geometry"/>
                </mxCell>
                <mxCell id="7RRr_ebmiQOzfgmXOCdE-64" value="" style="html=1;shadow=0;dashed=0;shape=mxgraph.bootstrap.checkbox2;labelPosition=right;verticalLabelPosition=middle;align=left;verticalAlign=middle;gradientColor=#DEDEDE;fillColor=#EDEDED;checked=0;spacing=5;checkedFill=#0085FC;checkedStroke=#ffffff;rounded=0;sketch=0;strokeColor=#000000;fontSize=18;fontColor=#393C56;" vertex="1" parent="7RRr_ebmiQOzfgmXOCdE-121">
                    <mxGeometry x="11.625" y="15" width="11.625000000000002" height="10" as="geometry"/>
                </mxCell>
                <mxCell id="7RRr_ebmiQOzfgmXOCdE-65" value="" style="html=1;shadow=0;dashed=0;shape=mxgraph.bootstrap.checkbox2;labelPosition=right;verticalLabelPosition=middle;align=left;verticalAlign=middle;gradientColor=#DEDEDE;fillColor=#EDEDED;checked=0;spacing=5;checkedFill=#0085FC;checkedStroke=#ffffff;rounded=0;sketch=0;strokeColor=#000000;fontSize=18;fontColor=#393C56;" vertex="1" parent="7RRr_ebmiQOzfgmXOCdE-121">
                    <mxGeometry x="23.25" y="75" width="11.625000000000002" height="10" as="geometry"/>
                </mxCell>
                <mxCell id="7RRr_ebmiQOzfgmXOCdE-66" value="&lt;font color=&quot;#000000&quot;&gt;Img&lt;/font&gt;" style="rounded=0;whiteSpace=wrap;html=1;sketch=0;strokeColor=#56517e;fillColor=#d0cee2;fontSize=18;align=center;" vertex="1" parent="7RRr_ebmiQOzfgmXOCdE-121">
                    <mxGeometry x="69.75" y="50" width="58.12500000000001" height="60" as="geometry"/>
                </mxCell>
                <mxCell id="7RRr_ebmiQOzfgmXOCdE-67" value="ชื่อสินค้า" style="text;html=1;strokeColor=none;fillColor=none;align=center;verticalAlign=middle;whiteSpace=wrap;rounded=0;sketch=0;fontSize=18;fontColor=#393C56;" vertex="1" parent="7RRr_ebmiQOzfgmXOCdE-121">
                    <mxGeometry x="139.5" y="65" width="104.62500000000001" height="20" as="geometry"/>
                </mxCell>
                <mxCell id="7RRr_ebmiQOzfgmXOCdE-68" value="10,000" style="text;html=1;strokeColor=none;fillColor=none;align=center;verticalAlign=middle;whiteSpace=wrap;rounded=0;sketch=0;fontSize=18;fontColor=#393C56;" vertex="1" parent="7RRr_ebmiQOzfgmXOCdE-121">
                    <mxGeometry x="465" y="70" width="46.50000000000001" height="20" as="geometry"/>
                </mxCell>
                <mxCell id="7RRr_ebmiQOzfgmXOCdE-72" value="" style="group" vertex="1" connectable="0" parent="7RRr_ebmiQOzfgmXOCdE-121">
                    <mxGeometry x="569.625" y="65" width="127.87500000000001" height="30" as="geometry"/>
                </mxCell>
                <mxCell id="7RRr_ebmiQOzfgmXOCdE-69" value="-" style="rounded=0;whiteSpace=wrap;html=1;sketch=0;strokeColor=#000000;fillColor=#FFFFFF;fontSize=18;fontColor=#393C56;align=center;" vertex="1" parent="7RRr_ebmiQOzfgmXOCdE-72">
                    <mxGeometry width="30.088235294117645" height="30" as="geometry"/>
                </mxCell>
                <mxCell id="7RRr_ebmiQOzfgmXOCdE-70" value="1" style="rounded=0;whiteSpace=wrap;html=1;sketch=0;strokeColor=#000000;fillColor=#FFFFFF;fontSize=18;fontColor=#393C56;align=center;" vertex="1" parent="7RRr_ebmiQOzfgmXOCdE-72">
                    <mxGeometry x="30.088235294117645" width="67.6985294117647" height="30" as="geometry"/>
                </mxCell>
                <mxCell id="7RRr_ebmiQOzfgmXOCdE-71" value="+" style="rounded=0;whiteSpace=wrap;html=1;sketch=0;strokeColor=#000000;fillColor=#FFFFFF;fontSize=18;fontColor=#393C56;align=center;" vertex="1" parent="7RRr_ebmiQOzfgmXOCdE-72">
                    <mxGeometry x="97.78676470588235" width="30.088235294117645" height="30" as="geometry"/>
                </mxCell>
                <mxCell id="7RRr_ebmiQOzfgmXOCdE-82" value="10,000" style="text;html=1;strokeColor=none;fillColor=none;align=center;verticalAlign=middle;whiteSpace=wrap;rounded=0;sketch=0;fontSize=18;fontColor=#393C56;" vertex="1" parent="7RRr_ebmiQOzfgmXOCdE-121">
                    <mxGeometry x="740" y="70" width="46.50000000000001" height="20" as="geometry"/>
                </mxCell>
                <mxCell id="7RRr_ebmiQOzfgmXOCdE-83" value="ลบ" style="html=1;shadow=0;dashed=0;shape=mxgraph.bootstrap.rrect;rSize=5;strokeColor=none;strokeWidth=1;fillColor=#6C767D;fontColor=#ffffff;whiteSpace=wrap;align=right;verticalAlign=middle;fontStyle=0;fontSize=14;spacingRight=20;rounded=0;sketch=0;" vertex="1" parent="7RRr_ebmiQOzfgmXOCdE-121">
                    <mxGeometry x="850" y="60" width="60" height="40" as="geometry"/>
                </mxCell>
                <mxCell id="7RRr_ebmiQOzfgmXOCdE-84" value="" style="shape=triangle;direction=south;fillColor=#ffffff;strokeColor=none;perimeter=none;" vertex="1" parent="7RRr_ebmiQOzfgmXOCdE-83">
                    <mxGeometry x="1" y="0.5" width="10" height="5" relative="1" as="geometry">
                        <mxPoint x="-17" y="-2.5" as="offset"/>
                    </mxGeometry>
                </mxCell>
                <mxCell id="7RRr_ebmiQOzfgmXOCdE-122" value="" style="group" vertex="1" connectable="0" parent="V7ItCuovpPEUFhIJDj6l-1">
                    <mxGeometry x="1160" y="1710" width="950" height="140" as="geometry"/>
                </mxCell>
                <mxCell id="7RRr_ebmiQOzfgmXOCdE-123" value="" style="html=1;shadow=0;dashed=0;shape=mxgraph.bootstrap.rrect;rSize=5;strokeColor=#DFDFDF;html=1;whiteSpace=wrap;fillColor=#FFFFFF;fontColor=#000000;rounded=0;sketch=0;align=left;container=0;" vertex="1" parent="7RRr_ebmiQOzfgmXOCdE-122">
                    <mxGeometry width="950" height="140" as="geometry"/>
                </mxCell>
                <mxCell id="7RRr_ebmiQOzfgmXOCdE-124" value="&lt;font color=&quot;#000000&quot;&gt;&amp;nbsp; &amp;nbsp; ชื่อร้านค้า&lt;/font&gt;" style="html=1;shadow=0;dashed=0;shape=mxgraph.bootstrap.topButton;strokeColor=inherit;fillColor=#F7F7F7;rSize=5;perimeter=none;whiteSpace=wrap;resizeWidth=1;align=left;spacing=20;fontSize=14;" vertex="1" parent="7RRr_ebmiQOzfgmXOCdE-122">
                    <mxGeometry width="950" height="40" as="geometry"/>
                </mxCell>
                <mxCell id="7RRr_ebmiQOzfgmXOCdE-125" value="" style="html=1;shadow=0;dashed=0;shape=mxgraph.bootstrap.checkbox2;labelPosition=right;verticalLabelPosition=middle;align=left;verticalAlign=middle;gradientColor=#DEDEDE;fillColor=#EDEDED;checked=0;spacing=5;checkedFill=#0085FC;checkedStroke=#ffffff;rounded=0;sketch=0;strokeColor=#000000;fontSize=18;fontColor=#393C56;" vertex="1" parent="7RRr_ebmiQOzfgmXOCdE-122">
                    <mxGeometry x="11.625" y="15" width="11.625000000000002" height="10" as="geometry"/>
                </mxCell>
                <mxCell id="7RRr_ebmiQOzfgmXOCdE-126" value="" style="html=1;shadow=0;dashed=0;shape=mxgraph.bootstrap.checkbox2;labelPosition=right;verticalLabelPosition=middle;align=left;verticalAlign=middle;gradientColor=#DEDEDE;fillColor=#EDEDED;checked=0;spacing=5;checkedFill=#0085FC;checkedStroke=#ffffff;rounded=0;sketch=0;strokeColor=#000000;fontSize=18;fontColor=#393C56;" vertex="1" parent="7RRr_ebmiQOzfgmXOCdE-122">
                    <mxGeometry x="23.25" y="75" width="11.625000000000002" height="10" as="geometry"/>
                </mxCell>
                <mxCell id="7RRr_ebmiQOzfgmXOCdE-127" value="&lt;font color=&quot;#000000&quot;&gt;Img&lt;/font&gt;" style="rounded=0;whiteSpace=wrap;html=1;sketch=0;strokeColor=#56517e;fillColor=#d0cee2;fontSize=18;align=center;" vertex="1" parent="7RRr_ebmiQOzfgmXOCdE-122">
                    <mxGeometry x="69.75" y="50" width="58.12500000000001" height="60" as="geometry"/>
                </mxCell>
                <mxCell id="7RRr_ebmiQOzfgmXOCdE-128" value="ชื่อสินค้า" style="text;html=1;strokeColor=none;fillColor=none;align=center;verticalAlign=middle;whiteSpace=wrap;rounded=0;sketch=0;fontSize=18;fontColor=#393C56;" vertex="1" parent="7RRr_ebmiQOzfgmXOCdE-122">
                    <mxGeometry x="139.5" y="65" width="104.62500000000001" height="20" as="geometry"/>
                </mxCell>
                <mxCell id="7RRr_ebmiQOzfgmXOCdE-129" value="10,000" style="text;html=1;strokeColor=none;fillColor=none;align=center;verticalAlign=middle;whiteSpace=wrap;rounded=0;sketch=0;fontSize=18;fontColor=#393C56;" vertex="1" parent="7RRr_ebmiQOzfgmXOCdE-122">
                    <mxGeometry x="465" y="70" width="46.50000000000001" height="20" as="geometry"/>
                </mxCell>
                <mxCell id="7RRr_ebmiQOzfgmXOCdE-130" value="" style="group" vertex="1" connectable="0" parent="7RRr_ebmiQOzfgmXOCdE-122">
                    <mxGeometry x="569.625" y="65" width="127.87500000000001" height="30" as="geometry"/>
                </mxCell>
                <mxCell id="7RRr_ebmiQOzfgmXOCdE-131" value="-" style="rounded=0;whiteSpace=wrap;html=1;sketch=0;strokeColor=#000000;fillColor=#FFFFFF;fontSize=18;fontColor=#393C56;align=center;" vertex="1" parent="7RRr_ebmiQOzfgmXOCdE-130">
                    <mxGeometry width="30.088235294117645" height="30" as="geometry"/>
                </mxCell>
                <mxCell id="7RRr_ebmiQOzfgmXOCdE-132" value="1" style="rounded=0;whiteSpace=wrap;html=1;sketch=0;strokeColor=#000000;fillColor=#FFFFFF;fontSize=18;fontColor=#393C56;align=center;" vertex="1" parent="7RRr_ebmiQOzfgmXOCdE-130">
                    <mxGeometry x="30.088235294117645" width="67.6985294117647" height="30" as="geometry"/>
                </mxCell>
                <mxCell id="7RRr_ebmiQOzfgmXOCdE-133" value="+" style="rounded=0;whiteSpace=wrap;html=1;sketch=0;strokeColor=#000000;fillColor=#FFFFFF;fontSize=18;fontColor=#393C56;align=center;" vertex="1" parent="7RRr_ebmiQOzfgmXOCdE-130">
                    <mxGeometry x="97.78676470588235" width="30.088235294117645" height="30" as="geometry"/>
                </mxCell>
                <mxCell id="7RRr_ebmiQOzfgmXOCdE-134" value="10,000" style="text;html=1;strokeColor=none;fillColor=none;align=center;verticalAlign=middle;whiteSpace=wrap;rounded=0;sketch=0;fontSize=18;fontColor=#393C56;" vertex="1" parent="7RRr_ebmiQOzfgmXOCdE-122">
                    <mxGeometry x="740" y="70" width="46.50000000000001" height="20" as="geometry"/>
                </mxCell>
                <mxCell id="7RRr_ebmiQOzfgmXOCdE-135" value="ลบ" style="html=1;shadow=0;dashed=0;shape=mxgraph.bootstrap.rrect;rSize=5;strokeColor=none;strokeWidth=1;fillColor=#6C767D;fontColor=#ffffff;whiteSpace=wrap;align=right;verticalAlign=middle;fontStyle=0;fontSize=14;spacingRight=20;rounded=0;sketch=0;" vertex="1" parent="7RRr_ebmiQOzfgmXOCdE-122">
                    <mxGeometry x="850" y="60" width="60" height="40" as="geometry"/>
                </mxCell>
                <mxCell id="7RRr_ebmiQOzfgmXOCdE-136" value="" style="shape=triangle;direction=south;fillColor=#ffffff;strokeColor=none;perimeter=none;" vertex="1" parent="7RRr_ebmiQOzfgmXOCdE-135">
                    <mxGeometry x="1" y="0.5" width="10" height="5" relative="1" as="geometry">
                        <mxPoint x="-17" y="-2.5" as="offset"/>
                    </mxGeometry>
                </mxCell>
                <mxCell id="7RRr_ebmiQOzfgmXOCdE-153" value="" style="group" vertex="1" connectable="0" parent="V7ItCuovpPEUFhIJDj6l-1">
                    <mxGeometry x="1160" y="1490" width="950" height="50" as="geometry"/>
                </mxCell>
                <mxCell id="7RRr_ebmiQOzfgmXOCdE-77" value="" style="rounded=1;whiteSpace=wrap;html=1;sketch=0;fillColor=#eeeeee;fontSize=18;align=left;strokeColor=#E6E6E6;" vertex="1" parent="7RRr_ebmiQOzfgmXOCdE-153">
                    <mxGeometry width="950" height="50" as="geometry"/>
                </mxCell>
                <mxCell id="7RRr_ebmiQOzfgmXOCdE-78" value="ราคาต่อหน่วย" style="text;html=1;strokeColor=none;fillColor=none;align=center;verticalAlign=middle;whiteSpace=wrap;rounded=0;sketch=0;fontSize=18;fontColor=#393C56;" vertex="1" parent="7RRr_ebmiQOzfgmXOCdE-153">
                    <mxGeometry x="400" y="15" width="170" height="20" as="geometry"/>
                </mxCell>
                <mxCell id="7RRr_ebmiQOzfgmXOCdE-79" value="จำนวน" style="text;html=1;strokeColor=none;fillColor=none;align=center;verticalAlign=middle;whiteSpace=wrap;rounded=0;sketch=0;fontSize=18;fontColor=#393C56;" vertex="1" parent="7RRr_ebmiQOzfgmXOCdE-153">
                    <mxGeometry x="550" y="15" width="170" height="20" as="geometry"/>
                </mxCell>
                <mxCell id="7RRr_ebmiQOzfgmXOCdE-80" value="รวม" style="text;html=1;strokeColor=none;fillColor=none;align=center;verticalAlign=middle;whiteSpace=wrap;rounded=0;sketch=0;fontSize=18;fontColor=#393C56;" vertex="1" parent="7RRr_ebmiQOzfgmXOCdE-153">
                    <mxGeometry x="710" y="15" width="120" height="20" as="geometry"/>
                </mxCell>
                <mxCell id="7RRr_ebmiQOzfgmXOCdE-81" value="จัดการ" style="text;html=1;strokeColor=none;fillColor=none;align=center;verticalAlign=middle;whiteSpace=wrap;rounded=0;sketch=0;fontSize=18;fontColor=#393C56;" vertex="1" parent="7RRr_ebmiQOzfgmXOCdE-153">
                    <mxGeometry x="810" y="15" width="130" height="20" as="geometry"/>
                </mxCell>
                <mxCell id="7RRr_ebmiQOzfgmXOCdE-154" value="" style="group" vertex="1" connectable="0" parent="V7ItCuovpPEUFhIJDj6l-1">
                    <mxGeometry x="1160" y="1860" width="950" height="60" as="geometry"/>
                </mxCell>
                <mxCell id="7RRr_ebmiQOzfgmXOCdE-155" value="" style="rounded=1;whiteSpace=wrap;html=1;sketch=0;fillColor=#eeeeee;fontSize=18;align=left;strokeColor=#E6E6E6;" vertex="1" parent="7RRr_ebmiQOzfgmXOCdE-154">
                    <mxGeometry width="950" height="50" as="geometry"/>
                </mxCell>
                <mxCell id="7RRr_ebmiQOzfgmXOCdE-156" value="สรุปรายการ" style="text;html=1;strokeColor=none;fillColor=none;align=center;verticalAlign=middle;whiteSpace=wrap;rounded=0;sketch=0;fontSize=18;fontColor=#393C56;" vertex="1" parent="7RRr_ebmiQOzfgmXOCdE-154">
                    <mxGeometry x="-10" y="15" width="170" height="20" as="geometry"/>
                </mxCell>
                <mxCell id="7RRr_ebmiQOzfgmXOCdE-157" value="จำนวน 2 รายการ" style="text;html=1;strokeColor=none;fillColor=none;align=center;verticalAlign=middle;whiteSpace=wrap;rounded=0;sketch=0;fontSize=18;fontColor=#393C56;" vertex="1" parent="7RRr_ebmiQOzfgmXOCdE-154">
                    <mxGeometry x="550" y="15" width="170" height="20" as="geometry"/>
                </mxCell>
                <mxCell id="7RRr_ebmiQOzfgmXOCdE-160" value="&lt;b&gt;&lt;font style=&quot;font-size: 20px&quot;&gt;20,000&lt;/font&gt;&lt;/b&gt;" style="text;html=1;strokeColor=none;fillColor=none;align=center;verticalAlign=middle;whiteSpace=wrap;rounded=0;sketch=0;fontSize=18;fontColor=#393C56;" vertex="1" parent="7RRr_ebmiQOzfgmXOCdE-154">
                    <mxGeometry x="740" y="15" width="46.50000000000001" height="20" as="geometry"/>
                </mxCell>
                <mxCell id="7RRr_ebmiQOzfgmXOCdE-161" value="สั่งซื้อ" style="rounded=0;whiteSpace=wrap;html=1;sketch=0;strokeColor=#A50040;fontSize=18;align=center;fillColor=#d80073;fontColor=#ffffff;" vertex="1" parent="V7ItCuovpPEUFhIJDj6l-1">
                    <mxGeometry x="1930" y="2080" width="170" height="50" as="geometry"/>
                </mxCell>
            </root>
        </mxGraphModel>
    </diagram>
</mxfile>